<svg width="881" height="369" fill="none" xmlns="http://www.w3.org/2000/svg"><mask id="a" style="mask-type:alpha" maskUnits="userSpaceOnUse" x="0" y="98" width="881" height="205"><path d="M778.5 98h-676C45.89 98 0 143.891 0 200.5S45.89 303 102.5 303h676c56.609 0 102.5-45.891 102.5-102.5S835.109 98 778.5 98Z" fill="#fff"/></mask><g mask="url(#a)"><path fill-rule="evenodd" clip-rule="evenodd" d="m1113.8-174.235 171.43-296.922-29.98-17.31-141.45 244.994v-69.245l111.47-193.058-29.99-17.31-81.48 141.129v-69.237l51.5-89.202-29.98-17.309-21.52 37.273v-220.671h-34.62v150.986l-3.82-2.207-30.79 53.34v-69.237l.81-1.413-.81-.471v-130.998h-34.62v123.606l-34.62 59.962v-69.237l10.09-17.481-10.09-5.827v-91.023h-34.62v105.054l-34.62 59.963v-69.238l19.37-33.549-19.37-11.182v-51.048h-34.621v86.503l-34.619 59.962v-69.245l28.642-49.609-28.642-16.536v-11.075h-34.619v67.944l-34.62 59.962v-69.237l37.919-65.677-29.981-17.31-14.04 24.318h-28.517v49.393l-34.619 59.962v-69.237l47.195-81.745-29.981-17.31-34.027 58.937h-17.806v30.842l-34.62 59.962v-69.237l56.473-97.814-29.981-17.309-54.015 93.556h-7.096v12.29l-34.619 59.963v-69.238l65.749-113.881-29.981-17.309-105.007 181.876v-53.701h-8.969l83.995-145.485-29.981-17.31-114.283 197.945v-35.15h-19.68l103.983-180.104-29.981-17.31L352.18-724.504v-16.599h-30.395l123.971-214.724-29.981-17.309L281.81-741.103h-33.487v58.002l-34.62 59.963v-69.238l172.091-298.07-29.981-17.314-153.952 266.657h-22.777v39.451l-34.619 59.962v-69.237l181.368-314.143-29.982-17.3-173.939 301.267h-12.067v20.9l-34.62 59.962v-69.238L265.87-1059.68l-29.981-17.31L41.963-741.103h-1.356v2.348l-34.62 59.962v-62.31h-34.619v122.272l-34.619 59.963v-182.235h-34.62v242.197l-34.618 59.962v-302.159h-34.62v362.122l-34.619 59.962v-422.084h-34.619v482.046l-34.619 59.963v-542.009h-34.62v601.971l-34.619 59.962v-661.933h-34.619v721.895l-34.619 59.963v-781.858h-34.62v841.82l-34.619 59.963v-901.783h-34.619v961.745l-250.152 433.276 29.981 17.309 220.171-381.346v69.238l-190.19 329.418 29.981 17.31 160.209-277.49v69.237l-130.228 225.562 29.981 17.31 100.247-173.633v69.237l-70.267 121.706 29.981 17.309 40.286-69.776v69.245l-10.301 17.841 10.301 5.947v459.238h34.619V783.83l34.619-59.962v69.237l-19.577 33.909 19.577 11.303v419.263h34.62V802.381l34.619-59.962v69.237l-28.854 49.978 28.854 16.659v379.287h34.619V898.281l26.469 15.281 8.15-14.116v358.134h34.62V938.256l17.192 9.926 17.427-30.185v339.583h34.619V978.23l7.916 4.57 26.703-46.251v321.031h34.62v-242.52l34.619-59.96v69.24l-5.996 10.39 5.996 3.46v219.39h34.62v-223.96l34.618-59.96v69.24l-15.272 26.45 15.272 8.82v179.41h34.62v-205.41l34.619-59.96v69.24l-24.55 42.52 24.55 14.17v139.44h34.619v-186.86l34.619-59.96V1080l-33.826 58.59L106 1155.9l3.845-6.66v108.34h34.62v-79.47l21.497 12.41 13.122-22.73v89.79h34.619v-39.5l12.22 7.06 22.4-38.8v71.24h33.802l3.765 2.17 31.671-54.85v52.68h9.558l-11.249 19.48 29.981 17.31 40.949-70.92v34.13h20.267l-31.235 54.1 29.981 17.31 50.225-86.99v15.58h30.979l-51.224 88.72 29.981 17.31 61.217-106.03h32.905v-56.99l34.619-59.96v69.23l-98.76 171.06 29.981 17.31 81.205-140.65h22.193v-38.44l34.62-59.96v69.24l-108.037 187.12 29.981 17.31 101.192-175.27h11.483v-19.89l34.619-59.96v69.24l-117.314 203.19 29.981 17.31 121.18-209.89h.772v-1.34l34.62-59.96v61.3h34.619v-121.26l34.619-59.96v181.22h34.621v-241.19l34.62-59.958v301.148h34.62V896.47l34.62-59.962v421.072h34.62V776.545l34.61-59.962v540.997h34.62V656.621L1645-263.441l-29.98-17.31-501.22 868.133v-69.237l471.24-816.206-29.98-17.309-441.26 764.276v-69.237l411.28-712.349-29.98-17.31-381.3 660.42v-69.237l351.32-608.492-29.98-17.31-321.34 556.563v-69.237l291.36-504.636-29.99-17.309L1113.8 33.478v-69.237l231.39-400.779-29.98-17.309-201.41 348.849v-69.237Zm168.28-296.077-25.98-15.002-142.3 246.457v60.007l168.28-291.462ZM1111.5-174.853v-60.007l-30.01 51.967v60.007l30.01-51.967Zm-30.01 56.583 30.01-51.967V-101l-30.01 51.967v-69.237Zm-2.31-.619v-60.006l-34.61 59.962v60.007l34.61-59.963Zm-34.61 64.578 34.61-59.962v69.238l-34.61 59.962v-69.238Zm-2.31-.618v-60.006l-30.01 51.967v60.006l30.01-51.967Zm-30.01 56.583 30.01-51.967v69.237l-30.01 51.968V1.654Zm-2.3-.618V-58.97L975.33.991v60.007l34.62-59.962Zm-34.62 64.578 34.62-59.962V74.89l-34.62 59.962V65.614Zm-2.31-.618V4.989l-30 51.967v60.007l30-51.967Zm-30 56.583 30-51.967v69.237l-30 51.968v-69.238Zm-2.31-.618V60.954l-34.62 59.962v60.007l34.62-59.962Zm-34.62 64.578 34.62-59.962v69.237l-34.62 59.962v-69.237Zm-2.31-.618v-60.007l-30.003 51.967v60.007l30.003-51.967Zm-30.003 56.583 30.003-51.968v69.238l-30.003 51.967v-69.237Zm-2.308-.619v-60.006l-34.619 59.962v60.007l34.619-59.963Zm-34.619 64.579 34.619-59.963v69.238l-34.619 59.962v-69.237Zm-2.308-.619v-60.006l-30.003 51.967v60.006l30.003-51.967Zm-30.003 56.583 30.003-51.967v69.237l-30.003 51.968v-69.238Zm-2.308-.618v-60.007l-34.62 59.963v60.006l34.62-59.962Zm-34.62 64.578 34.62-59.962v69.237l-34.62 59.963v-69.238Zm-2.308-.618v-60.007L735.3 416.731v60.006l30.003-51.967ZM735.3 481.353l30.003-51.967v69.237L735.3 550.591v-69.238Zm-2.308-.618v-60.007l-34.619 59.962v60.007l34.619-59.962Zm-34.619 64.578 34.619-59.962v69.237l-34.619 59.962v-69.237Zm-2.308-.618v-60.007l-30.003 51.967v60.007l30.003-51.967Zm-30.003 56.583 30.003-51.968v69.238l-30.003 51.967v-69.237Zm-2.308-.619v-60.006l-34.62 59.962v60.007l34.62-59.963Zm-34.62 64.579 34.62-59.963v69.238l-34.62 59.962v-69.237Zm-2.308-.619v-60.006l-30.003 51.967v60.007l30.003-51.968Zm-30.003 56.583 30.003-51.967v69.237l-30.003 51.968v-69.238Zm-2.308-.618v-60.007l-34.619 59.963v60.006l34.619-59.962Zm-34.619 64.578 34.619-59.962v69.237L559.896 854.4v-69.238Zm-2.308-.618v-60.007l-30.004 51.968v60.006l30.004-51.967Zm-30.004 56.583 30.004-51.967v69.237l-30.004 51.967v-69.237Zm-2.307-.618v-60.007l-34.62 59.962v60.007l34.62-59.962Zm-34.62 64.578 34.62-59.962v69.237l-34.62 59.958v-69.233Zm-2.308-.619v-60.006l-30.003 51.967v60.007l30.003-51.968Zm-30.003 56.584 30.003-51.968v69.236l-30.003 51.97v-69.238Zm-2.308-.619v-60.006l-34.619 59.962v60.011l34.619-59.967Zm-34.619 64.577 34.619-59.961v69.241l-34.619 59.96v-69.24Zm-2.308-.62v-60.004l-30.003 51.964v60.01l30.003-51.97Zm-30.003 56.59 30.003-51.97v69.24l-30.003 51.96v-69.23Zm-2.308-.62v-60.01l-34.62 59.96v60.01l34.62-59.96Zm-34.62 64.58 34.62-59.97v69.24l-34.62 59.96v-69.23Zm-2.308-.62v-60.01l-30.003 51.97v60.01l30.003-51.97Zm-30.003 56.58 30.003-51.97v69.24l-21.421 37.1h-8.582v-54.37Zm9.915 56.68-10.761 18.64 25.983 15 41.794-72.39v-60l-34.62 59.96v38.79h-22.396Zm20.088-34.79v32.48h-18.756l18.756-32.48Zm39.236-67.96v60.01l30.003-51.97v-60.01l-30.003 51.97Zm32.311-55.97v60.01l34.619-59.96v-60.01l-34.619 59.96Zm36.927-63.95v60l30.003-51.97v-60l-30.003 51.97Zm32.311-55.97v60.01l34.62-59.97v-60.002l-34.62 59.962Zm36.927-63.96v60.01l30.004-51.97v-60.007l-30.004 51.967Zm32.312-55.964v60.006l34.619-59.962v-60.007l-34.619 59.963Zm36.927-63.96v60.007l30.003-51.968v-60.006l-30.003 51.967Zm32.311-55.965v60.007l34.62-59.963v-60.006l-34.62 59.962Zm36.928-63.96v60.007l30.003-51.967v-60.007l-30.003 51.967Zm32.311-55.964v60.006l34.619-59.962v-60.007l-34.619 59.963Zm36.927-63.96v60.006l30.003-51.967v-60.007L735.3 555.207Zm32.311-55.965v60.006l34.62-59.962v-60.007l-34.62 59.963Zm36.928-63.96v60.006l30.003-51.967v-60.006l-30.003 51.967Zm32.311-55.965v60.006l34.619-59.962v-60.006l-34.619 59.962Zm36.927-63.96v60.007l30.003-51.968V263.39l-30.003 51.967Zm32.313-55.965v60.007l34.62-59.962V199.43l-34.62 59.962Zm36.93-63.959v60.006l30-51.967v-60.007l-30 51.968Zm32.31-55.965v60.006l34.62-59.962V79.506l-34.62 59.962Zm36.92-63.96v60.007l30.01-51.968V23.54l-30.01 51.967Zm32.32-55.965V79.55l34.61-59.963v-60.006l-34.61 59.962Zm36.92-63.96V15.59l30.01-51.968v-60.006l-30.01 51.967Zm32.31-55.964v60.006l228.24-395.318-25.98-15.002-202.26 350.314Zm-2.3 68.62-30.01 51.967v69.237l30.01-51.967v-69.238Zm0 73.853-30.01 51.967v60.007l30.01-51.967V42.092Zm2.3 56.009L1402-401.074l-25.98-15.001-262.22 454.17V98.1Zm-2.3 8.613-30.01 51.968v69.237l30.01-51.967v-69.238Zm0 73.854-30.01 51.967v60.007l30.01-51.968v-60.006Zm2.3 56.009 348.16-603.032-25.98-15.001-322.18 558.027v60.006Zm-2.3 8.613-30.01 51.967v69.238l30.01-51.967V245.19Zm0 73.854-30.01 51.967v60.007l30.01-51.968v-60.006Zm2.3 56.009 408.13-706.888-25.99-15.002-382.14 661.883v60.007Zm-2.3 8.613-30.01 51.967v69.238l30.01-51.968v-69.237Zm0 73.854-30.01 51.967v60.007l30.01-51.968V457.52Zm2.3 56.009 468.09-810.745-25.99-15.002-442.1 765.74v60.007Zm-2.3 8.613-30.01 51.967v69.238l30.01-51.967v-69.238Zm0 73.854-30.01 51.967v60.006l30.01-51.967v-60.006Zm2.3 56.009 528.05-914.602-25.98-15.001-502.07 869.596v60.007Zm-2.3 8.613-30.01 51.967v542.685h30.01V660.618Zm-32.32 51.349V651.96l-34.61 59.963v60.006l34.61-59.962Zm-36.92 63.96V715.92l-30.01 51.967v60.007l30.01-51.967Zm-30.01 56.583v422.76h30.01V780.543l-30.01 51.967Zm-2.3-.619v-60.006l-34.62 59.962v60.007l34.62-59.963Zm-36.93 63.96v-60.006l-30 51.967v60.006l30-51.967Zm-30 56.584v302.835h30V900.468l-30 51.967Zm-2.31-.619V891.81l-34.62 59.962v60.008l34.62-59.964Zm-36.93 63.964v-60.011l-30.003 51.971v60l30.003-51.96Zm-30.003 56.58v182.91h30.003v-234.88l-30.003 51.97Zm-2.308-.62v-60.01l-34.619 59.97v60l34.619-59.96Zm-36.927 63.96v-60.01l-30.003 51.97v60.01l30.003-51.97Zm-30.003 56.58v62.99h30.003v-114.95l-30.003 51.96Zm-2.308-.61v-60.01l-34.62 59.96v60.01l34.62-59.96Zm-38.057 65.91h-31.182v-6l-114.161 197.74 25.984 15 119.359-206.74Zm-28.874-9.99v7.68h30.003v-59.65l-30.003 51.97Zm32.311-60.58 34.62-59.97v-69.23l-34.62 59.96v69.24Zm-2.308-65.24V1191l-30.003 51.97v-69.24l30.003-51.96Zm2.308-8.62 34.62-59.96v-60.01l-34.62 59.97v60Zm-2.308-56.01v60.01l-30.003 51.97v-60.01l30.003-51.97Zm2.308-8.61 34.62-59.96v-69.241l-34.62 59.961v69.24Zm-2.308-65.24v69.24l-30.003 51.96v-69.23l30.003-51.97Zm2.308-8.61 34.62-59.966v-60.007l-34.62 59.962v60.011Zm-2.308-56.013v60.003l-30.003 51.97v-60.006l30.003-51.967Zm2.308-8.614 34.62-59.962v-69.237l-34.62 59.962v69.237Zm-2.308-65.24v69.238L735.3 966.018v-69.237l30.003-51.968Zm2.308-8.613 34.62-59.962v-60.007l-34.62 59.963V836.2Zm-2.308-56.009v60.007L735.3 892.165v-60.007l30.003-51.967Zm2.308-8.614 34.62-59.962v-69.237l-34.62 59.962v69.237Zm-2.308-65.239v69.237L735.3 827.542v-69.237l30.003-51.967Zm2.308-8.614 34.62-59.962v-60.007l-34.62 59.963v60.006Zm-2.308-56.009v60.007L735.3 753.689v-60.007l30.003-51.967Zm2.308-8.614 34.62-59.962v-69.237l-34.62 59.962v69.237Zm-2.308-65.239v69.237L735.3 689.066v-69.237l30.003-51.967Zm-32.311 55.965-34.619 59.962v69.237l34.619-59.962v-69.237Zm0 73.853-34.619 59.962v60.007l34.619-59.963V697.68Zm0 64.622-34.619 59.963v69.237l34.619-59.962v-69.238Zm0 73.854-34.619 59.962v60.007l34.619-59.963v-60.006Zm0 64.622-34.619 59.962v69.24l34.619-59.964v-69.238Zm0 73.852-34.619 59.96v60.01l34.619-59.96v-60.01Zm0 64.62-34.619 59.97v69.23l34.619-59.96v-69.24Zm0 73.86-34.619 59.96v60.01l34.619-59.97v-60Zm-36.927 123.96v-60l-30.003 51.96v26.24h19.495l10.508-18.2Zm-7.843 18.2h7.843v-13.58l-7.843 13.58Zm-3.997 2.31h-20.471v-24.55L558.869 1414.7l25.984 15 99.372-172.12Zm-18.163-33.16 30.003-51.97v-69.24l-30.003 51.97v69.24Zm0-73.85 30.003-51.97v-60.01l-30.003 51.97v60.01Zm0-64.63 30.003-51.96v-69.242l-30.003 51.972v69.23Zm-2.308-65.24v69.24l-34.62 59.96v-69.23l34.62-59.97Zm2.308-8.61 30.003-51.968v-60.007l-30.003 51.968v60.007Zm-2.308-56.01v60.01l-34.62 59.96v-60.01l34.62-59.96Zm2.308-8.613 30.003-51.968v-69.237l-30.003 51.968v69.237Zm-2.308-65.24v69.237l-34.62 59.966v-69.241l34.62-59.962Zm2.308-8.613 30.003-51.968V761.64l-30.003 51.967v60.007Zm-2.308-56.01v60.007l-34.62 59.962v-60.006l34.62-59.963Zm2.308-8.613 30.003-51.967v-69.238l-30.003 51.968v69.237Zm-2.308-65.24v69.237l-34.62 59.963v-69.238l34.62-59.962Zm-36.928 63.96-30.003 51.967v69.238l30.003-51.968v-69.237Zm0 73.853-30.003 51.968v60.008l30.003-51.969v-60.007Zm0 64.623-30.003 51.963v69.24l30.003-51.97v-69.233Zm0 73.853-30.003 51.97v60l30.003-51.96v-60.01Zm0 64.62-30.003 51.97v69.24l30.003-51.97v-69.24Zm0 73.86-30.003 51.96v44.79h8.785l21.218-36.75v-60Zm2.308 56.01 34.62-59.97v-60l-34.62 59.96v60.01Zm-2.308 8.61-18.553 32.13h18.553v-32.13Zm-22.55 34.44h-9.761v-43.1l-95.607 165.6 25.983 15 79.385-137.5Zm-9.761-121.57V1076l-34.619 59.97v60l34.619-59.96Zm-36.927 63.96v-60.01l-30.004 51.97v60.01l30.004-51.97Zm-29.264 55.3h29.264v-50.68l-29.264 50.68Zm-3.047.67v-60.01l-34.62 59.96v1.69h-.975l-50.736 87.88 25.984 15 60.347-104.52Zm-34.62-4.66 34.62-59.97v-69.23l-34.62 59.96v69.24Zm0-73.86 34.62-59.96v-60.01l-34.62 59.97v60Zm-2.308-56.01v60.01l-30.003 51.97v-60.01l30.003-51.97Zm2.308-8.61 34.62-59.96V983.6l-34.62 59.96v69.24Zm-2.308-65.24v69.24l-30.003 51.96v-69.23l30.003-51.97Zm-32.311 55.96-34.619 59.97v69.23l34.619-59.96v-69.24Zm0 73.86-34.619 59.96v20.24h-11.686l-30.749 53.26 25.984 15 51.07-88.46v-60Zm-44.973 77.89h8.046v-13.93l-8.046 13.93Zm8.046-18.55v-69.24l-30.003 51.97v35.82H408.4l10.711-18.55ZM527.584 979.6v69.24l30.004-51.97v-69.235L527.584 979.6Zm32.312-55.962v69.242l34.619-59.967v-69.237l-34.619 59.962Zm34.619 13.891-34.619 59.961v60.01l34.619-59.96v-60.011Zm0 64.621-34.619 59.96v69.24l34.619-59.96v-69.24Zm-36.927 133.2v-69.24l-30.004 51.97v69.24l30.004-51.97Zm-30.004-21.89 30.004-51.96v-60.01l-30.004 51.97v60ZM458.346 1238l30.003-51.96v69.23h-30.003V1238Zm346.193-738.096v69.238l30.003-51.968v-69.237l-30.003 51.967Zm32.311-55.965v69.238l34.619-59.962v-69.238l-34.619 59.962Zm36.927-63.959v69.237l30.003-51.967v-69.238l-30.003 51.968Zm32.313-55.965v69.237l34.62-59.962v-69.237l-34.62 59.962Zm36.93-63.96v69.237l30-51.967v-69.237l-30 51.967Zm32.31-55.965v69.238l34.62-59.963v-69.237l-34.62 59.962Zm36.92-63.96v69.238l30.01-51.967V88.163l-30.01 51.967Zm32.32-55.964v69.237l34.61-59.962V24.203l-34.61 59.963Zm34.61 13.89-34.61 59.963v60.007l34.61-59.963V98.057Zm0 64.623-34.61 59.962v69.238l34.61-59.962v-69.238Zm0 73.854-34.61 59.962v60.006l34.61-59.962v-60.006Zm0 64.622-34.61 59.962v69.238l34.61-59.962v-69.238Zm0 73.853-34.61 59.963v60.006l34.61-59.962v-60.007Zm0 64.623-34.61 59.962v69.237l34.61-59.962v-69.237Zm0 73.853-34.61 59.963v60.006l34.61-59.962v-60.007Zm0 64.623-34.61 59.962v69.238l34.61-59.963v-69.237Zm-36.92 133.197v-69.237l-30.01 51.967v69.237l30.01-51.967Zm-32.31 55.965v-69.238l-34.62 59.963v69.237l34.62-59.962Zm-36.93 63.96v-69.238l-30 51.967v69.238l30-51.967Zm-32.31 55.964v-69.237l-34.62 59.962v69.238l34.62-59.963Zm-36.93 63.96v-69.237l-30.003 51.967v69.237l30.003-51.967Zm-32.311 55.967v-69.239L836.85 997.84v69.24l34.619-59.96Zm-36.927 63.96v-69.24l-30.003 51.97v69.24l30.003-51.97Zm-30.003-21.89 30.003-51.97v-60.002l-30.003 51.972v60Zm0-64.62 30.003-51.968v-69.237l-30.003 51.967v69.238Zm0-73.854 30.003-51.967v-60.007l-30.003 51.967v60.007Zm0-64.623 30.003-51.967v-69.237l-30.003 51.967v69.237Zm0-73.853 30.003-51.967v-60.007l-30.003 51.968v60.006Zm0-64.622 30.003-51.968v-69.237l-30.003 51.967v69.238Zm0-73.854 30.003-51.967V521.79l-30.003 51.968v60.006Zm32.311-115.971v60.006l34.619-59.962v-60.006l-34.619 59.962Zm36.927-63.96v60.007l30.003-51.968v-60.006l-30.003 51.967Zm32.313-55.965v60.007l34.62-59.962v-60.007l-34.62 59.962Zm36.93-63.96v60.007l30-51.967v-60.007l-30 51.967Zm32.31-55.965v60.007l34.62-59.962v-60.007l-34.62 59.962Zm36.92-63.959v60.006l30.01-51.967v-60.006l-30.01 51.967Zm30.01 12.655-30.01 51.967v69.238l30.01-51.968v-69.237Zm0 73.853-30.01 51.968v60.006l30.01-51.967v-60.007Zm0 64.623-30.01 51.967v69.238l30.01-51.968v-69.237Zm0 73.853-30.01 51.967v60.007l30.01-51.967v-60.007Zm0 64.623-30.01 51.967v69.237l30.01-51.967v-69.237Zm0 73.853-30.01 51.968v60.006l30.01-51.967v-60.007Zm-32.31 115.972v-60.007l-34.62 59.962v60.007l34.62-59.962Zm-36.93 63.959v-60.006l-30 51.967v60.007l30-51.968Zm-32.31 55.965v-60.006l-34.62 59.962v60.006l34.62-59.962Zm-36.93 63.96v-60.007l-30.003 51.968v60.006L903.78 877.3Zm-32.311 55.965v-60.007L836.85 933.22v60.01l34.619-59.965Zm-34.619-4.661 34.619-59.962v-69.237l-34.619 59.962v69.237Zm0-73.853 34.619-59.962v-60.007l-34.619 59.962v60.007Zm0-64.622 34.619-59.963v-69.237l-34.619 59.962v69.238Zm0-73.854 34.619-59.962v-60.006l-34.619 59.962v60.006Zm0-64.622 34.619-59.962v-69.238l-34.619 59.962v69.238Zm36.927-133.197v69.237l30.003-51.967v-69.238l-30.003 51.968Zm32.313-55.965v69.237l34.62-59.962v-69.237l-34.62 59.962Zm36.93-63.96v69.237l30-51.967v-69.237l-30 51.967Zm32.31-55.965v69.237l34.62-59.962v-69.237l-34.62 59.962Zm34.62 13.891-34.62 59.962v60.007l34.62-59.962v-60.007Zm0 64.623-34.62 59.962v69.237l34.62-59.962V421.08Zm0 73.853-34.62 59.962v60.007l34.62-59.962v-60.007Zm0 64.623-34.62 59.962v69.237l34.62-59.962v-69.237Zm-36.93 133.197v-69.238l-30 51.968v69.237l30-51.967Zm-32.31 55.965V679.48l-34.62 59.962v69.238l34.62-59.962Zm-36.93 63.959V743.44l-30.003 51.967v69.238l30.003-51.968Zm-30.003-21.886 30.003-51.967v-60.006l-30.003 51.967v60.006Zm0-64.622 30.003-51.967v-69.238l-30.003 51.967v69.238Zm0-73.853 30.003-51.968v-60.006l-30.003 51.967v60.007Zm32.313-115.972v60.007l34.62-59.963v-60.006l-34.62 59.962Zm36.93-63.96v60.007l30-51.967v-60.007l-30 51.967Zm30 12.655-30 51.968v69.237l30-51.967v-69.238Zm0 73.854-30 51.967v60.007l30-51.967v-60.007Zm-32.31 115.971v-60.006l-34.62 59.962v60.007l34.62-59.963Zm-34.62-4.66 34.62-59.962v-69.238l-34.62 59.963v69.237ZM317.561 1200.28v-60l-34.619 59.96v55.15l2.103 1.21 32.516-56.32Zm-36.927 53.78v-49.82l-21.573 37.36 21.573 12.46Zm2.308-58.44 34.619-59.96v-69.25l-34.619 59.97v69.24Zm-2.308-65.25v69.25l-24.726 42.83 22.22 12.82H250.63v-72.93l30.004-51.97Zm2.308-8.61 34.619-59.96v-60.01l-34.619 59.96v60.01Zm-2.308-56.01v60.01l-30.004 51.97v-60.01l30.004-51.97Zm2.308-8.61 34.619-59.96v-69.241L282.942 987.9v69.24Zm-2.308-65.24v69.24l-30.004 51.96v-69.23l30.004-51.97Zm2.308-8.61 34.619-59.967v-60.007l-34.619 59.963v60.011Zm-2.308-56.014v60.004l-30.004 51.97v-60.01l30.004-51.964Zm2.308-8.613 34.619-59.963v-69.237l-34.619 59.962v69.238Zm-2.308-65.24v69.237l-30.004 51.97v-69.24l30.004-51.967Zm2.308-8.613 34.619-59.963v-60.006l-34.619 59.962v60.007Zm-2.308-56.01v60.007l-30.004 51.967v-60.006l30.004-51.968Zm2.308-8.613 34.619-59.962v-69.238l-34.619 59.962v69.238Zm-2.308-65.24v69.237l-30.004 51.968v-69.238l30.004-51.967Zm2.308-8.613 34.619-59.963v-60.006l-34.619 59.962v60.007Zm-2.308-56.009v60.006l-30.004 51.967v-60.006l30.004-51.967Zm2.308-8.614 34.619-59.962v-69.238l-34.619 59.963v69.237Zm-2.308-65.24v69.237l-30.004 51.968v-69.237l30.004-51.968Zm2.308-8.613 34.619-59.963v-60.006l-34.619 59.962v60.007Zm-2.308-56.009v60.006l-30.004 51.968v-60.007l30.004-51.967Zm2.308-8.614 34.619-59.962v-69.238l-34.619 59.963v69.237Zm-2.308-65.24v69.238L250.63 559.2v-69.237l30.004-51.968Zm2.308-8.613 34.619-59.962v-60.007l-34.619 59.962v60.007Zm-2.308-56.009v60.006l-30.004 51.968V425.34l30.004-51.967Zm2.308-8.614 34.619-59.962v-69.245l-34.619 59.962v69.245Zm-2.308-65.248v69.246l-30.004 51.967v-69.245l30.004-51.968Zm2.308-8.613 34.619-59.962v-60.007l-34.619 59.962v60.007Zm-2.308-56.009v60.007l-30.004 51.967v-60.007l30.004-51.967Zm2.308-8.613 34.619-59.963V97.076l-34.619 59.962v69.238Zm-2.308-65.24v69.237L250.63 282.24v-69.237l30.004-51.967Zm2.308-8.614 34.619-59.962V32.453l-34.619 59.963v60.006Zm-2.308-56.01v60.008l-30.004 51.967V148.38l30.004-51.967Zm2.308-8.612 34.619-59.963V-41.4l-34.619 59.962V87.8Zm-2.308-65.24v69.237l-30.004 51.968V74.527l30.004-51.967Zm2.308-8.614 34.619-59.962v-60.007L282.942-46.06v60.006Zm-2.308-56.009v60.007L250.63 69.91V9.904l30.004-51.967Zm2.308-8.613 34.619-59.963v-69.237l-34.619 59.962v69.238Zm-2.308-65.24v69.237L250.63 5.29V-63.95l30.004-51.967Zm2.308-8.614 34.619-59.962v-60.006l-34.619 59.962v60.006Zm-2.308-56.009v60.007L250.63-68.565v-60.006l30.004-51.968Zm2.308-8.613 34.619-59.962v-69.238l-34.619 59.963v69.237Zm-2.308-65.24v69.238l-30.004 51.967v-69.237l30.004-51.968Zm2.308-8.613 34.619-59.963v-60.006l-34.619 59.962v60.007Zm-2.308-56.01v60.007L250.63-207.04v-60.007l30.004-51.968Zm2.308-8.613 34.619-59.962v-69.237l-34.619 59.962v69.237Zm-2.308-65.24v69.238l-30.004 51.967V-340.9l30.004-51.968Zm2.308-8.613 34.619-59.962v-60.007l-34.619 59.962v60.007Zm-2.308-56.009v60.006l-30.004 51.968v-60.007l30.004-51.967Zm2.308-8.614 34.619-59.962v-69.237l-34.619 59.962v69.237Zm-2.308-65.239v69.237l-30.004 51.967v-69.237l30.004-51.967Zm2.308-8.614 34.619-59.962v-60.007l-34.619 59.962v60.007Zm-2.308-56.009v60.006l-30.004 51.968v-60.007l30.004-51.967Zm2.308-8.613 34.619-59.963v-69.245l-34.619 59.962v69.246Zm-2.308-65.248v69.245l-30.004 51.967v-69.245l30.004-51.967Zm2.308-8.613 34.619-59.963v-2.7h1.559l123.483-213.879-25.984-15.002-133.677 231.537v60.007Zm-2.308-56.01v60.007l-30.004 51.967v-60.006l30.004-51.968Zm-.156-4.345H250.63v51.697l29.848-51.697Zm-32.155 60.31-34.62 59.963v60.006l34.62-59.962v-60.007Zm0 64.623-34.62 59.962v69.245l34.62-59.962v-69.245Zm0 73.861-34.62 59.962v60.007l34.62-59.963v-60.006Zm0 64.622-34.62 59.963v69.237l34.62-59.962v-69.238Zm0 73.854-34.62 59.962v60.007l34.62-59.963v-60.006Zm0 64.622-34.62 59.963v69.237l34.62-59.963v-69.237Zm0 73.853-34.62 59.963v60.007l34.62-59.963v-60.007Zm0 64.623-34.62 59.962v69.238l34.62-59.963v-69.237Zm0 73.853-34.62 59.962v60.007l34.62-59.962v-60.007Zm0 64.623L213.703.01v69.237l34.62-59.962v-69.237Zm0 73.853-34.62 59.963v60.006l34.62-59.962V13.902Zm0 64.623-34.62 59.962v69.237l34.62-59.962V78.525Zm0 73.853-34.62 59.962v60.007l34.62-59.962v-60.007Zm0 64.623-34.62 59.962V346.2l34.62-59.962v-69.237Zm0 73.853-34.62 59.962v60.007l34.62-59.963v-60.006Zm0 64.622-34.62 59.963v69.245l34.62-59.962v-69.246Zm0 73.861-34.62 59.963v60.007l34.62-59.963v-60.007Zm0 64.623-34.62 59.963v69.237l34.62-59.963V493.96Zm0 73.853-34.62 59.963v60.007l34.62-59.963v-60.007Zm0 64.623-34.62 59.963v69.237l34.62-59.963v-69.237Zm0 73.854-34.62 59.962v60.006l34.62-59.962V706.29Zm0 64.622-34.62 59.962v69.238l34.62-59.963v-69.237Zm0 73.853-34.62 59.963v60.006l34.62-59.962v-60.007Zm0 64.623-34.62 59.962v69.24l34.62-59.97v-69.232Zm0 73.852-34.62 59.96v60.01l34.62-59.96v-60.01Zm0 64.62-34.62 59.97v69.23l34.62-59.96v-69.24Zm0 73.86-34.62 59.96v33.74l11.376 6.56 23.244-40.26v-60Zm-36.928 92.36v-28.4l-12.3 21.3 12.3 7.1Zm0-33.02v-69.24l-30.003 51.97v91.48h30.003v-38.52l-15.453-8.92 15.453-26.77Zm-30.003-21.88 30.003-51.97v-60.01l-30.003 51.97v60.01Zm0-64.63 30.003-51.97v-69.23l-30.003 51.96v69.24Zm-2.308-65.24v69.24l-34.619 59.96v-69.24l34.619-59.96Zm2.308-8.61 30.003-51.968v-60.007l-30.003 51.968v60.007Zm-2.308-56.01v60.01l-34.619 59.96v-60.01l34.619-59.96Zm2.308-8.613 30.003-51.968v-69.237l-30.003 51.967v69.238Zm-2.308-65.24v69.237l-34.619 59.966v-69.241l34.619-59.962Zm2.308-8.614 30.003-51.967v-60.007l-30.003 51.968v60.006Zm-2.308-56.009v60.007l-34.619 59.962v-60.006l34.619-59.963Zm2.308-8.613 30.003-51.968v-69.237l-30.003 51.967v69.238Zm-2.308-65.24v69.237l-34.619 59.962v-69.237l34.619-59.962Zm2.308-8.614 30.003-51.967v-60.007l-30.003 51.968v60.006Zm-2.308-56.009v60.007l-34.619 59.962v-60.006l34.619-59.963Zm2.308-8.613 30.003-51.968V557.92l-30.003 51.967v69.238Zm-2.308-65.24v69.237l-34.619 59.963v-69.238l34.619-59.962Zm2.308-8.613 30.003-51.968v-60.007l-30.003 51.968v60.007Zm-2.308-56.01v60.007l-34.619 59.962v-60.006l34.619-59.963Zm2.308-8.613 30.003-51.967v-69.246l-30.003 51.968v69.245Zm-2.308-65.248v69.245l-34.619 59.963v-69.246l34.619-59.962Zm2.308-8.613 30.003-51.968v-60.006l-30.003 51.967v60.007Zm-2.308-56.01v60.007l-34.619 59.963v-60.007l34.619-59.963Zm2.308-8.613 30.003-51.967v-69.237l-30.003 51.967v69.237Zm-2.308-65.24v69.238l-34.619 59.962v-69.237l34.619-59.963Zm2.308-8.613 30.003-51.967v-60.007l-30.003 51.967v60.007Zm-2.308-56.009v60.006l-34.619 59.963v-60.007l34.619-59.962Zm2.308-8.614 30.003-51.967v-69.237l-30.003 51.967v69.237Zm-2.308-65.24v69.238l-34.619 59.962v-69.237l34.619-59.963Zm2.308-8.613 30.003-51.967V77.862l-30.003 51.967v60.007Zm-2.308-56.009v60.007l-34.619 59.962v-60.007l34.619-59.962Zm2.308-8.613 30.003-51.968V4.009l-30.003 51.967v69.238Zm-2.308-65.24v69.237l-34.619 59.962v-69.237l34.619-59.963Zm2.308-8.614L211.395-.607v-60.007L181.392-8.647V51.36Zm-2.308-56.01v60.008l-34.619 59.962V55.313l34.619-59.962Zm2.308-8.613 30.003-51.967v-69.237L181.392-82.5v69.237Zm-2.308-65.24v69.238l-34.619 59.962V-18.54l34.619-59.963Zm2.308-8.613 30.003-51.967v-60.007l-30.003 51.968v60.006Zm-2.308-56.009v60.007l-34.619 59.962v-60.007l34.619-59.962Zm2.308-8.613 30.003-51.968v-69.237l-30.003 51.968v69.237Zm-2.308-65.24v69.237l-34.619 59.962v-69.237l34.619-59.962Zm2.308-8.613 30.003-51.968v-60.006l-30.003 51.967v60.007Zm-2.308-56.01v60.007l-34.619 59.962v-60.006l34.619-59.963Zm2.308-8.613 30.003-51.967v-69.238l-30.003 51.968v69.237Zm-2.308-65.24v69.238l-34.619 59.962v-69.238l34.619-59.962Zm2.308-8.613 30.003-51.968v-60.006l-30.003 51.967v60.007Zm-2.308-56.009v60.006l-34.619 59.962v-60.006l34.619-59.962Zm2.308-8.614 30.003-51.967v-69.245l-30.003 51.967v69.245Zm-2.308-65.248v69.246l-34.619 59.962v-69.245l34.619-59.963Zm2.308-8.613 30.003-51.967v-60.007l-30.003 51.967v60.007Zm-2.308-56.009v60.007l-34.619 59.962v-60.007l34.619-59.962Zm2.308-8.614 30.003-51.967v-69.237l-30.003 51.967v69.237Zm-2.308-65.239v69.237l-34.619 59.962v-69.237l34.619-59.962Zm2.308-8.614 30.003-51.967v-45.801h-8.201l-21.802 37.762v60.006Zm-2.308-56.009v60.007l-34.619 59.962v-60.007l34.619-59.962Zm-36.927 59.344v-69.238l-30.004 51.968v69.237l30.004-51.967Zm-30.004 56.583 30.004-51.967v60.006l-30.004 51.968v-60.007Zm-2.308-.618v-69.238l-34.62 59.963v69.237l34.62-59.962Zm-34.62 64.578 34.62-59.962v60.006l-34.62 59.963v-60.007Zm-2.307-.619v-69.237l-30.003 51.967v69.238l30.003-51.968Zm-30.003 56.584 30.003-51.968v60.007l-30.003 51.967v-60.006Zm-2.308-.619v-69.237l-34.62 59.962v69.238l34.62-59.963Zm-34.62 64.578 34.62-59.962v60.007l-34.62 59.962v-60.007Zm-2.307-.618v-69.237l-30.004 51.967v69.237L3.68-397.843Zm-30.004 56.583L3.68-393.227v60.007l-30.004 51.967v-60.007Zm-2.308-.618v-69.237l-34.619 59.962v69.237l34.62-59.962ZM-63.25-277.3l34.62-59.962v60.007l-34.62 59.962V-277.3Zm-2.308-.618v-69.238l-30.003 51.968v69.237l30.003-51.967Zm-30.003 56.583 30.003-51.967v60.006l-30.003 51.968v-60.007Zm-2.308-.619v-69.237l-34.619 59.962v69.238l34.619-59.963Zm-34.619 64.579 34.619-59.963v60.007l-34.619 59.962v-60.006Zm-2.308-.619v-69.237l-30.004 51.967v69.237l30.004-51.967Zm-30.004 56.583 30.004-51.967v60.007l-30.004 51.967v-60.007Zm-2.308-.618v-69.237l-34.619 59.962v69.237l34.619-59.962Zm-34.619 64.578 34.619-59.962v60.006l-34.619 59.963v-60.007Zm-2.308-.618v-69.238l-30.003 51.968v69.237l30.003-51.967Zm-30.003 56.583 30.003-51.967v60.006l-30.003 51.968V18.514Zm-2.308-.619v-69.237L-270.966 8.62v69.238l34.619-59.963Zm-34.619 64.579 34.619-59.963v60.007l-34.619 59.963V82.474Zm-2.308-.62V12.619l-30.004 51.967v69.238l30.004-51.968Zm-30.004 56.585 30.004-51.968v60.007l-30.004 51.967v-60.006Zm-2.308-.619V68.583l-34.619 59.962v69.238l34.619-59.963Zm-34.619 64.579 34.619-59.963v60.007l-34.619 59.962v-60.006Zm-2.308-.619v-69.237l-30.003 51.967v69.237l30.003-51.967Zm-30.003 56.583 30.003-51.967v60.007l-30.003 51.967v-60.007Zm-2.308-.618v-69.237l-34.619 59.962v69.237l34.619-59.962Zm-34.619 64.578 34.619-59.962v60.007l-34.619 59.962v-60.007Zm-2.308-.618v-69.238l-30.004 51.968v69.237l30.004-51.967Zm-30.004 56.583 30.004-51.967v60.006l-30.004 51.968v-60.007Zm-2.308-.618v-69.238l-34.619 59.963v69.237l34.619-59.962Zm-34.619 64.578 34.619-59.962v60.006l-34.619 59.963v-60.007Zm-2.308-.618v-69.238l-30.003 51.968v69.237l30.003-51.967Zm-30.003 56.583 30.003-51.967v60.006l-30.003 51.968v-60.007Zm-2.308 3.997-127.076 220.102 25.984 15.001 101.092-175.096V502.21Zm2.308 60.626v69.237l30.003-51.967v-69.238l-30.003 51.968Zm32.311-55.965v69.237l34.619-59.963v-69.237l-34.619 59.963Zm36.927-63.96v69.237l30.004-51.967v-69.238l-30.004 51.968Zm32.312-55.965v69.237l34.619-59.962v-69.237l-34.619 59.962Zm36.927-63.96v69.237l30.003-51.967v-69.237l-30.003 51.967Zm32.311-55.965v69.238l34.619-59.963v-69.237l-34.619 59.962Zm36.927-63.959v69.237l30.004-51.968v-69.237l-30.004 51.968Zm32.312-55.965v69.237l34.619-59.962V87.134l-34.619 59.963Zm36.927-63.96v69.237l30.003-51.967V31.169l-30.003 51.968Zm32.311-55.965v69.237l34.619-59.962v-69.238l-34.619 59.963Zm36.927-63.96v69.237l30.004-51.967v-69.237l-30.004 51.967Zm32.312-55.965v69.237l34.619-59.962v-69.237l-34.619 59.962Zm36.927-63.959v69.236l30.003-51.966v-69.238l-30.003 51.968Zm32.311-55.965v69.237l34.62-59.962v-69.238l-34.62 59.963Zm36.927-63.96v69.237L3.68-259.367v-69.237l-30.004 51.967Zm32.312-55.965v69.237l34.619-59.962v-69.237l-34.62 59.962Zm36.927-63.96v69.238l30.003-51.968v-69.237l-30.003 51.967Zm32.31-55.964v69.237l34.62-59.962v-69.238l-34.62 59.963Zm36.928-63.96v69.237l30.004-51.967v-69.238l-30.004 51.968Zm30.004 21.886-30.004 51.967v60.007l30.004-51.968V-494.6Zm0 64.622-30.004 51.968v69.245l30.004-51.968v-69.245Zm0 73.861-30.004 51.968v60.006l30.004-51.967v-60.007Zm0 64.623-30.004 51.967v69.238l30.004-51.968v-69.237Zm0 73.853-30.004 51.967v60.007l30.004-51.967v-60.007Zm0 64.623-30.004 51.967v69.237l30.004-51.967v-69.237Zm0 73.853-30.004 51.967v60.007l30.004-51.968v-60.006Zm0 64.622-30.004 51.968v69.237l30.004-51.967v-69.238Zm0 73.853-30.004 51.968v60.007l30.004-51.967V59.31Zm0 64.623-30.004 51.968v69.237l30.004-51.967v-69.238Zm0 73.854-30.004 51.967v60.007l30.004-51.968v-60.006Zm0 64.622-30.004 51.968v69.237l30.004-51.968v-69.237Zm0 73.853-30.004 51.968v60.007l30.004-51.968v-60.007Zm0 64.623-30.004 51.968v69.237l30.004-51.968v-69.237Zm0 73.853-30.004 51.968v60.007l30.004-51.968v-60.007Zm0 64.623-30.004 51.967v69.246l30.004-51.968v-69.245Zm0 73.861-30.004 51.967v60.007l30.004-51.967v-60.007Zm0 64.623-30.004 51.967v69.237l30.004-51.967v-69.237Zm0 73.853-30.004 51.968v60.006l30.004-51.967v-60.007Zm0 64.623-30.004 51.967v69.237l30.004-51.967v-69.237Zm0 73.853-30.004 51.967v60.009l30.004-51.969v-60.007Zm0 64.622-30.004 51.964V1076l30.004-51.97v-69.234Zm0 73.854-30.004 51.97v60l30.004-51.96v-60.01Zm0 64.62-30.004 51.97v110.03h30.004v-78.5l-6.176-3.56 6.176-10.7v-69.24Zm0 73.86-3.024 5.23 3.024 1.75v-6.98Zm2.308 8.31 20.652 11.92 13.967-24.19v-60l-34.619 59.96v12.31Zm-34.62-30.82v-60.01l-30.673 53.13 25.984 15 4.689-8.12Zm0-138.47v-60.011l-34.62 59.961v60.01l34.62-59.96Zm-36.927 63.95v-60l-30.003 51.97v54.74l2.279 1.31 27.724-48.02Zm-30.003 49.37v135.8h30.003v-180.55l-26.88 46.56-3.123-1.81Zm-2.308-3.99v-49.42l-21.397 37.06 21.397 12.36Zm2.308-58.03 30.003-51.97v-69.235L42.915 988.21v69.24Zm0-73.85 30.003-51.971v-60.006L42.915 923.59v60.01Zm0-64.626 30.003-51.968v-69.237l-30.003 51.968v69.237Zm-2.308-65.24v69.237L5.987 982.93v-69.233l34.62-59.963Zm2.308-8.613 30.003-51.968v-60.006l-30.003 51.967v60.007Zm-2.308-56.009v60.006l-34.62 59.963v-60.007l34.62-59.962Zm2.308-8.614 30.003-51.967v-69.245l-30.003 51.967v69.245Zm-2.308-65.248v69.246l-34.62 59.962v-69.245l34.62-59.963Zm2.308-8.613 30.003-51.967v-60.007L42.915 646.63v60.007Zm-2.308-56.009v60.007l-34.62 59.962V710.59l34.62-59.962Zm2.308-8.613 30.003-51.968V520.81l-30.003 51.967v69.238Zm-2.308-65.24v69.237l-34.62 59.962v-69.237l34.62-59.962Zm2.308-8.614 30.003-51.967v-60.007l-30.003 51.968v60.006Zm-2.308-56.009v60.007l-34.62 59.962v-60.007l34.62-59.962Zm2.308-8.614 30.003-51.967v-69.237l-30.003 51.967v69.237Zm-2.308-65.239v69.237l-34.62 59.962v-69.237l34.62-59.962Zm2.308-8.614 30.003-51.967v-60.007l-30.003 51.968v60.006Zm-2.308-56.009v60.007l-34.62 59.962v-60.007l34.62-59.962Zm2.308-8.613 30.003-51.968v-69.237l-30.003 51.967v69.238Zm-2.308-65.24v69.237l-34.62 59.962v-69.237l34.62-59.962Zm2.308-8.614 30.003-51.967v-60.007l-30.003 51.968v60.006ZM40.607 235.2v60.007l-34.62 59.962v-60.007l34.62-59.962Zm2.308-8.613 30.003-51.967v-69.238l-30.003 51.967v69.238Zm-2.308-65.24v69.237l-34.62 59.963v-69.238l34.62-59.962Zm2.308-8.613 30.003-51.968V40.759L42.915 92.727v60.007Zm-2.308-56.01v60.007l-34.62 59.962v-60.006l34.62-59.963Zm2.308-8.613 30.003-51.968v-69.237L42.915 18.874V88.11Zm-2.308-65.24v69.238L5.987 152.07V82.833l34.62-59.962Zm2.308-8.614L72.918-37.71v-60.006L42.915-45.75v60.006Zm-2.308-56.009v60.007L5.987 78.217V18.21l34.62-59.963Zm2.308-8.613 30.003-51.967v-69.238l-30.003 51.968v69.237Zm-2.308-65.24v69.237L5.987 13.595v-69.237l34.62-59.963Zm2.308-8.613 30.003-51.968v-60.006l-30.003 51.967v60.007Zm-2.308-56.009v60.006L5.987-60.259v-60.006l34.62-59.962Zm2.308-8.614 30.003-51.967v-69.245l-30.003 51.967v69.245Zm-2.308-65.247v69.245l-34.62 59.962v-69.245l34.62-59.962Zm2.308-8.614 30.003-51.967v-60.007l-30.003 51.968v60.006Zm-2.308-56.009v60.007l-34.62 59.962v-60.007l34.62-59.962ZM3.68-254.751l-30.004 51.967v60.007L3.68-194.744v-60.007Zm0 64.622-30.004 51.968v69.245L3.68-120.884v-69.245Zm0 73.861L-26.324-64.3v60.006L3.68-56.26v-60.007Zm0 64.623L-26.324.322V69.56L3.68 17.592v-69.237Zm0 73.853-30.004 51.968v60.006L3.68 82.215V22.208Zm0 64.623-30.004 51.967v69.238L3.68 156.068V86.831Zm0 73.853-30.004 51.967v60.007L3.68 220.691v-60.007Zm0 64.623-30.004 51.967v69.237L3.68 294.544v-69.237Zm0 73.853-30.004 51.967v60.007L3.68 359.167V299.16Zm0 64.623-30.004 51.967v69.237L3.68 433.02v-69.237Zm0 73.853-30.004 51.967v60.007L3.68 497.643v-60.007Zm0 64.622-30.004 51.968v69.237L3.68 571.496v-69.238Zm0 73.854-30.004 51.967v60.007L3.68 636.119v-60.007Zm0 64.622-30.004 51.968v69.237L3.68 709.972v-69.238Zm0 73.854-30.004 51.967v60.007L3.68 774.594v-60.006Zm0 64.622-30.004 51.967v69.246L3.68 848.455V779.21Zm0 73.861-30.004 51.968v60.007L3.68 913.078v-60.007Zm0 64.623-30.004 51.967v69.239L3.68 986.93v-69.236Zm0 73.856-30.004 51.96v33.32l11.556 6.68 18.448-31.96v-60Zm2.308 56.01 34.619-59.97v-60.002L5.987 987.55v60.01Zm-2.308 8.61-17.603 30.49-12.4-7.16v175.77H3.68v-199.1Zm-32.312 19.33v-27.99l-12.12 20.99 12.12 7Zm0-106.457v-60.007l-34.619 59.962v60.012l34.62-59.967ZM-65.559 1033v-60.004l-30.003 51.964v11.9l20.832 12.03 9.171-15.89Zm-30.003 6.52v215.75h30.003v-217.65l-8.326 14.42-21.677-12.52Zm-2.308-3.99v-6.57l-2.843 4.93 2.843 1.64Zm2.308-15.18 30.003-51.97v-69.245l-30.003 51.967v69.248Zm0-73.864 30.003-51.967v-60.007l-30.003 51.967v60.007Zm0-64.622 30.003-51.968v-69.237l-30.003 51.967v69.238Zm-2.308-65.24v69.237l-34.619 59.962v-69.237l34.619-59.962Zm2.308-8.614 30.003-51.967v-60.007l-30.003 51.968v60.006Zm-2.308-56.009v60.007l-34.619 59.962v-60.006l34.619-59.963Zm2.308-8.613 30.003-51.968v-69.237l-30.003 51.968v69.237Zm-2.308-65.24v69.237l-34.619 59.963V738.11l34.619-59.962Zm2.308-8.613 30.003-51.968v-60.006l-30.003 51.967v60.007Zm-2.308-56.01v60.007l-34.619 59.963v-60.007l34.619-59.963Zm2.308-8.613 30.003-51.967v-69.238l-30.003 51.968v69.237Zm-2.308-65.24v69.238l-34.619 59.962v-69.237l34.619-59.963Zm2.308-8.613 30.003-51.968v-60.007l-30.003 51.968v60.007Zm-2.308-56.01v60.007l-34.619 59.963v-60.007l34.619-59.963Zm2.308-8.613 30.003-51.967v-69.238l-30.003 51.968v69.237Zm-2.308-65.24v69.238l-34.619 59.962v-69.238l34.619-59.962Zm2.308-8.613 30.003-51.968v-60.006l-30.003 51.967v60.007Zm-2.308-56.01v60.007l-34.619 59.963v-60.007l34.619-59.963Zm2.308-8.613 30.003-51.967v-69.238l-30.003 51.968v69.237Zm-2.308-65.24v69.238l-34.619 59.962v-69.237l34.619-59.963Zm2.308-8.613 30.003-51.967v-60.007L-95.562 194.1v60.007Zm-2.308-56.009v60.006l-34.619 59.963V258.06l34.619-59.962Zm2.308-8.614 30.003-51.967V68.279l-30.003 51.968v69.237Zm-2.308-65.239v69.237l-34.619 59.962v-69.237l34.619-59.962Zm2.308-8.614 30.003-51.968V3.657l-30.003 51.967v60.007Zm-2.308-56.01v60.008l-34.619 59.962v-60.007l34.619-59.962Zm2.308-8.613L-65.56-.959v-69.245l-30.003 51.967v69.245Zm-2.308-65.247v69.245l-34.619 59.962V45.723L-97.87-14.24Zm2.308-8.614L-65.56-74.82v-60.007L-95.562-82.86v60.007Zm-2.308-56.01v60.008l-34.619 59.962V-18.9l34.619-59.962Zm-36.927 63.96-30.004 51.968v60.007l30.004-51.967v-60.007Zm0 64.624-30.004 51.967v69.245l30.004-51.967V49.721Zm0 73.861-30.004 51.967v60.007l30.004-51.968v-60.006Zm0 64.622-30.004 51.968v69.237l30.004-51.967v-69.238Zm0 73.854-30.004 51.967v60.006l30.004-51.967v-60.006Zm0 64.622-30.004 51.968v69.237l30.004-51.968V326.68Zm0 73.853-30.004 51.968v60.006l30.004-51.967v-60.007Zm0 64.623-30.004 51.967v69.238l30.004-51.968v-69.237Zm0 73.853-30.004 51.968v60.007l30.004-51.968v-60.007Zm0 64.623-30.004 51.967v69.238l30.004-51.968v-69.237Zm0 73.853-30.004 51.968v60.006l30.004-51.967v-60.007Zm0 64.623-30.004 51.967v69.237l30.004-51.967v-69.237Zm0 73.853-30.004 51.967v60.007l30.004-51.967v-60.007Zm0 64.623-30.004 51.967v322.719h30.004v-238.4l-29.035-16.76 29.035-50.289v-69.237Zm0 73.853-25.882 44.833 25.882 14.94v-59.773Zm2.308 56.013 34.619-59.966v-60.007l-34.619 59.962v60.011Zm-34.62-78.517v-60.007l-34.619 59.962v43.682l7.071 4.08 27.548-47.717Zm-36.927 42.297v-38.344l-16.605 28.761 16.605 9.583Zm2.308-46.958 34.619-59.962v-69.237l-34.619 59.962v69.237Zm-2.308-65.24v69.238l-19.758 34.221 19.758 11.409v278.37h-30.003V914l30.003-51.968Zm2.308-8.613 34.619-59.962V733.45l-34.619 59.962v60.007Zm-2.308-56.009v60.007l-30.003 51.967v-60.007l30.003-51.967Zm2.308-8.613 34.619-59.963v-69.237l-34.619 59.962v69.238Zm-2.308-65.24v69.237l-30.003 51.967v-69.237l30.003-51.967Zm2.308-8.614 34.619-59.962v-60.007l-34.619 59.962v60.007Zm-2.308-56.009v60.007l-30.003 51.967v-60.007l30.003-51.967Zm2.308-8.613 34.619-59.963v-69.237l-34.619 59.962v69.238Zm-2.308-65.24v69.237l-30.003 51.967v-69.237l30.003-51.967Zm2.308-8.614 34.619-59.962v-60.007l-34.619 59.962v60.007Zm-2.308-56.009v60.007l-30.003 51.967v-60.007l30.003-51.967Zm2.308-8.613 34.619-59.963v-69.237l-34.619 59.962v69.238Zm-2.308-65.24v69.237l-30.003 51.967v-69.237l30.003-51.967Zm2.308-8.614 34.619-59.962v-60.007l-34.619 59.963v60.006Zm-2.308-56.009v60.007l-30.003 51.967V433.95l30.003-51.968Zm2.308-8.613 34.619-59.963v-69.237l-34.619 59.962v69.238Zm-2.308-65.24v69.237l-30.003 51.967v-69.237l30.003-51.967Zm2.308-8.614 34.619-59.962v-60.006l-34.619 59.962v60.006Zm-2.308-56.009v60.007l-30.003 51.967v-60.006l30.003-51.968Zm2.308-8.613 34.619-59.962v-69.246l-34.619 59.963v69.245Zm-2.308-65.248v69.246l-30.003 51.967v-69.245l30.003-51.968Zm2.308-8.613 34.619-59.962V41.063l-34.619 59.962v60.007Zm-2.308-56.009v60.006l-30.003 51.968V156.99l30.003-51.967Zm-32.311 55.964-34.619 59.963v60.007l34.619-59.963v-60.007Zm0 64.623-34.619 59.962v69.246l34.619-59.963V225.61Zm0 73.861-34.619 59.962v60.007l34.619-59.962v-60.007Zm0 64.623-34.619 59.962v69.237l34.619-59.962v-69.237Zm0 73.853-34.619 59.962v60.007l34.619-59.962v-60.007Zm0 64.623-34.619 59.962v69.237l34.619-59.962V502.57Zm0 73.853-34.619 59.962v60.007l34.619-59.962v-60.007Zm0 64.623-34.619 59.962v69.237l34.619-59.962v-69.237Zm0 73.853-34.619 59.962v60.007l34.619-59.962v-60.007Zm0 64.622-34.619 59.963v69.237l34.619-59.962v-69.238Zm0 73.854-34.619 59.962v22.254l16.347 9.438 18.272-31.648v-60.006Zm-36.927 80.883v-16.924l-7.328 12.693 7.328 4.231Zm0-21.539v-69.238l-30.004 51.968v359.821h30.004V936.923l-10.481-6.051 10.481-18.153Zm-30.004-21.886 30.004-51.968v-60.006l-30.004 51.967v60.007Zm0-64.623 30.004-51.967v-69.238l-30.004 51.968v69.237Zm-2.308-65.24v69.238l-34.619 59.962v-69.238l34.619-59.962Zm2.308-8.613 30.004-51.967v-60.007l-30.004 51.967v60.007Zm-2.308-56.01v60.007l-34.619 59.963V756.31l34.619-59.963Zm2.308-8.613 30.004-51.967V566.53l-30.004 51.967v69.237Zm-2.308-65.24v69.238l-34.619 59.962v-69.237l34.619-59.963Zm2.308-8.613 30.004-51.968v-60.006l-30.004 51.967v60.007Zm-2.308-56.009v60.006l-34.619 59.963v-60.007l34.619-59.962Zm2.308-8.614 30.004-51.967v-69.237l-30.004 51.967v69.237Zm-2.308-65.24v69.238l-34.619 59.962v-69.237l34.619-59.963Zm2.308-8.613 30.004-51.967v-60.007l-30.004 51.967v60.007Zm-2.308-56.009v60.006l-34.619 59.963v-60.007l34.619-59.962Zm2.308-8.614 30.004-51.967V289.57l-30.004 51.967v69.245Zm-2.308-65.247v69.245l-34.619 59.962v-69.245l34.619-59.962Zm2.308-8.614 30.004-51.967v-60.007l-30.004 51.968v60.006Zm-2.308-56.009v60.007l-34.619 59.962v-60.007l34.619-59.962Zm-36.927 63.96-30.003 51.967v60.007l30.003-51.967v-60.007Zm0 64.622-30.003 51.968v69.245l30.003-51.967v-69.246Zm0 73.861-30.003 51.968v60.006l30.003-51.967v-60.007Zm0 64.623-30.003 51.968v69.237l30.003-51.968v-69.237Zm0 73.854-30.003 51.967v60.007l30.003-51.968v-60.006Zm0 64.622-30.003 51.968v69.237l30.003-51.968v-69.237Zm0 73.853-30.003 51.968v60.006l30.003-51.967v-60.007Zm0 64.623-30.003 51.967v378.373h30.003V896.948l-1.204-.695 1.204-2.086V824.93Zm-32.311 50.698v-59.356l-25.702 44.517 25.702 14.839Zm0-137.825v-60.007l-34.619 59.963v60.006l34.619-59.962Zm-36.927 63.96v-60.007l-30.004 51.968v43.261l7.251 4.186 22.753-39.408Zm-30.004 37.887v415.62h30.004V806.379l-21.908 37.945-8.096-4.674Zm-2.308-3.998v-37.931l-16.424 28.449 16.424 9.482Zm2.308-46.544 30.004-51.968v-69.237l-30.004 51.967v69.238Zm0-73.854 30.004-51.967V603.28l-30.004 51.968v60.006Zm0-64.622 30.004-51.968v-69.245l-30.004 51.967v69.246Zm-2.308-65.248v69.245l-34.619 59.963v-69.245l34.619-59.963Zm2.308-8.613 30.004-51.968v-60.007l-30.004 51.968v60.007Zm-2.308-56.01v60.007l-34.619 59.963v-60.007l34.619-59.963Zm-36.927 63.96-30.003 51.968v60.007l30.003-51.968v-60.007Zm0 64.623-30.003 51.968v69.245l30.003-51.968v-69.245Zm0 73.861-30.003 51.968v21.836l16.528 9.543 13.475-23.34v-60.007Zm2.308 56.009 34.619-59.962v-60.007l-34.619 59.963v60.006Zm-2.308 8.614-12.631 21.877-17.372-10.031v455.596h30.003V787.828Zm-32.311 7.849V779.17l-7.148 12.38 7.148 4.127Zm0-94.984v-60.007l-67.114 116.245 25.984 15.002 41.13-71.24Zm103.858-239.894v60.007l34.619-59.963v-60.006l-34.619 59.962Zm34.619 4.66-34.619 59.963v69.245l34.619-59.962v-69.246Zm0 73.862-34.619 59.962v60.006l34.619-59.962v-60.006Zm0 64.622-34.619 59.963v69.237l34.619-59.963v-69.237Zm34.619 290.843 34.619-59.963v60.007l-8.994 15.58-25.625-14.795v-.829Zm276.954-1033.61v60.006l34.62-59.962v-60.006l-34.62 59.962Zm34.62 4.66-34.62 59.962v69.245l34.62-59.962v-69.245Zm0 73.861L-63.252-.34v60.007L-28.63-.296v-60.007Zm0 64.623-34.62 59.962v69.238l34.62-59.963V4.32Zm0 73.853-34.62 59.962v60.007l34.62-59.962V78.173Zm0 64.623-34.62 59.962v69.237l34.62-59.962v-69.237Zm0 73.853-34.62 59.962v60.007l34.62-59.962v-60.007Zm0 64.622-34.62 59.963v69.237l34.62-59.962v-69.238Zm0 73.854-34.62 59.962v60.007l34.62-59.962v-60.007Zm0 64.622-34.62 59.963v69.237l34.62-59.962v-69.238Zm0 73.854-34.62 59.962v60.007l34.62-59.962v-60.007Zm0 64.622-34.62 59.963v69.237l34.62-59.962v-69.238Zm0 73.854-34.62 59.962v60.007l34.62-59.963v-60.006Zm0 64.622-34.62 59.963v69.237l34.62-59.962v-69.238Zm0 73.853-34.62 59.963v60.007l34.62-59.963v-60.007Zm0 64.623-34.62 59.962v69.246l34.62-59.963v-69.245ZM75.225-378.673v60.006l34.619-59.962v-60.007l-34.62 59.963Zm34.619 4.66-34.62 59.962v69.246l34.62-59.963v-69.245Zm0 73.861-34.62 59.962v60.007l34.62-59.962v-60.007Zm0 64.623-34.62 59.962v69.237l34.62-59.962v-69.237Zm0 73.853-34.62 59.962v60.007l34.62-59.963v-60.006Zm0 64.622L75.225-37.09v69.237l34.62-59.962v-69.238Zm0 73.853-34.62 59.963v60.007l34.62-59.963V-23.2Zm0 64.623-34.62 59.963v69.237l34.62-59.962V41.422Zm0 73.854-34.62 59.962v60.007l34.62-59.963v-60.006Zm0 64.622-34.62 59.962v69.238l34.62-59.962v-69.238Zm0 73.853-34.62 59.963v60.007l34.62-59.963v-60.007Zm0 64.623-34.62 59.962v69.238l34.62-59.963v-69.237Zm0 73.853-34.62 59.963v60.006l34.62-59.962v-60.007Zm0 64.623-34.62 59.962v69.238l34.62-59.963V456.85Zm0 73.853-34.62 59.963v60.006l34.62-59.962v-60.007Zm0 64.623-34.62 59.962v69.245l34.62-59.962v-69.245Zm0 73.861-34.62 59.962v60.007l34.62-59.962v-60.007Zm0 64.623-34.62 59.962v69.237l34.62-59.962V733.81Zm0 73.853-34.62 59.962v60.007l34.62-59.962v-60.007Zm0 64.622-34.62 59.963v69.232l34.62-59.957v-69.238Zm-620.838-452.541 30.003-51.968V307.77l-30.003 51.967v60.007Zm-2.308-56.009-187.037 323.958 25.983 15.001 161.054-278.953v-60.006Zm2.308-8.614 30.003-51.967v-69.238l-30.003 51.967v69.238Zm0-73.854 30.003-51.967v-60.007l-30.003 51.967v60.007Zm-2.308-56.009L-760.3 653.073l25.983 15.002 221.016-382.81v-60.007Zm2.308-8.613 30.003-51.968v-903.472h-30.003v955.44Zm32.311-51.349v60.006l34.619-59.962v-60.007l-34.619 59.963Zm36.927-63.96v60.006l30.004-51.967V49.368l-30.004 51.968Zm30.004-56.584v-783.547h-30.004V96.72l30.004-51.968Zm2.308.618v60.007l34.619-59.962v-60.007l-34.619 59.962Zm36.927-63.96v60.007l30.003-51.967v-60.007l-30.003 51.968Zm30.003-56.582v-663.623h-30.003v715.59l30.003-51.967Zm2.308.618v60.007l34.619-59.963v-60.006l-34.619 59.962Zm36.927-63.96v60.007l30.004-51.967v-60.007l-30.004 51.967Zm30.004-56.583v-543.698h-30.004v595.666l30.004-51.968Zm2.308.619v60.006l34.619-59.962v-60.007l-34.619 59.963Zm36.927-63.96v60.006l30.003-51.967v-60.007l-30.003 51.968Zm30.003-56.583v-423.774h-30.003v475.741l30.003-51.967Zm2.308.618v60.007l34.619-59.963v-60.006l-34.619 59.962Zm36.927-63.96v60.007l30.004-51.967v-60.007l-30.004 51.967Zm30.004-56.583v-303.849h-30.004v355.816l30.004-51.967Zm2.308.618v60.007l34.619-59.962v-60.007l-34.619 59.962Zm36.927-63.959v60.006l30.003-51.967v-60.007l-30.003 51.968Zm30.003-56.584v-183.924h-30.003v235.892l30.003-51.968Zm2.308.619v60.006l34.62-59.962v-60.007l-34.62 59.963Zm36.927-63.96v60.007L3.68-610.173v-60.007l-30.004 51.968ZM3.68-674.795v-64h-30.004v115.967L3.68-674.795Zm2.308.618v60.007l34.619-59.962v-60.007l-34.62 59.962Zm36.927-63.96v60.007l30.003-51.967v-8.698H43.295l-.38.658Zm1.713-2.966h30.598v7.008l187.492-324.745-25.984-15L44.628-741.103Zm28.29 15.622-30.003 51.967v69.238l30.003-51.967v-69.238Zm0 73.853L42.915-599.66v60.007l30.003-51.968v-60.007Zm2.308 56.01 34.619-59.963v-60.006l-34.62 59.962v60.007Zm36.927-123.967v60.007l30.004-51.967v-27.25h-18.912l-11.092 19.21Zm8.427-19.21h-8.427v14.594l8.427-14.594Zm3.997-2.308h19.888v25.56L322.68-1024.22l-25.984-15-172.119 298.117Zm-83.97 205.447v-60.007L5.987-535.7v60.006l34.62-59.962ZM3.68-471.696v-60.007l-30.004 51.967v60.007L3.68-471.696Zm-32.312 55.965v-60.007l-34.619 59.962v60.007l34.62-59.962Zm-36.927 63.959v-60.006l-30.003 51.967v60.007l30.003-51.968Zm-32.311 55.965v-60.006l-34.619 59.962v60.006l34.619-59.962Zm-36.927 63.96v-60.007l-30.004 51.968v60.006l30.004-51.967Zm-32.312 55.965v-60.007l-34.619 59.962v60.007l34.619-59.962Zm-36.927 63.959v-60.006l-30.003 51.967v60.007l30.003-51.968Zm-32.311 55.965v-60.006l-34.619 59.962V4.005l34.619-59.963Zm-36.927 63.96v-60.007L-303.278-.037v60.006l30.004-51.967Zm-32.312 55.965V3.96l-34.619 59.962v60.007l34.619-59.962Zm-36.927 63.96V67.92l-30.003 51.968v60.006l30.003-51.967Zm-32.311 55.965v-60.007l-34.619 59.962v60.007l34.619-59.962Zm-36.927 63.959v-60.006l-30.004 51.967v60.007l30.004-51.968Zm-32.312 55.965V243.81l-34.619 59.962v60.007l34.619-59.963Zm-34.619-4.66 34.619-59.962v-69.238l-34.619 59.962v69.238Zm36.927-133.198v69.238l30.004-51.967v-69.238l-30.004 51.967Zm32.312-55.965v69.238l34.619-59.962V50.031l-34.619 59.962Zm36.927-63.96v69.238l30.003-51.967V-5.934l-30.003 51.967Zm32.311-55.965v69.239l34.619-59.963v-69.238l-34.619 59.962Zm36.927-63.96v69.239l30.004-51.968v-69.238l-30.004 51.968Zm32.312-55.964v69.238l34.619-59.962v-69.238l-34.619 59.962Zm36.927-63.96v69.238l30.003-51.967v-69.238l-30.003 51.967Zm32.311-55.965v69.238l34.619-59.962v-69.238l-34.619 59.962Zm36.927-63.959v69.238l30.004-51.968v-69.238l-30.004 51.968Zm32.312-55.965v69.238l34.619-59.962v-69.238l-34.619 59.962Zm36.927-63.96v69.238l30.003-51.967v-69.238l-30.003 51.967Zm32.311-55.965v69.238l34.62-59.962v-69.238l-34.62 59.962Zm36.927-63.959v69.237L3.68-536.319v-69.238l-30.004 51.968Zm32.312-55.965v69.238l34.619-59.963v-69.238l-34.62 59.963Zm175.404-96.095 19.137-33.146h-19.137v33.146Zm23.134-35.454h9.177v44.111l168.938-292.609-25.983-14.999-152.132 263.497Zm115.343 3.319v69.245l30.003-51.968v-18.288h-29.419l-.584 1.011Zm30.003 21.893-30.003 51.968v60.006l30.003-51.967v-60.007Zm0 64.623-30.003 51.967v69.238l30.003-51.968v-69.237Zm2.308 65.24v-69.238l34.62-59.962v69.238l-34.62 59.962Zm-2.308 8.613-30.003 51.968v60.006l30.003-51.967v-60.007Zm2.308 56.009v-60.006l34.62-59.963v60.007l-34.62 59.962Zm-2.308 8.614-30.003 51.967v69.237l30.003-51.967v-69.237Zm2.308 65.24v-69.238l34.62-59.962v69.237l-34.62 59.963Zm-2.308 8.613-30.003 51.967v60.007l30.003-51.967v-60.007Zm2.308 56.009v-60.007l34.62-59.962v60.007l-34.62 59.962Zm-2.308 8.613-30.003 51.968v69.237l30.003-51.967v-69.238Zm2.308 65.24v-69.237l34.62-59.962v69.237l-34.62 59.962Zm-2.308 8.614-30.003 51.967v60.007l30.003-51.967v-60.007Zm2.308 56.009v-60.007l34.62-59.962v60.007l-34.62 59.962Zm-2.308 8.613-30.003 51.968v69.237l30.003-51.967v-69.238Zm2.308 65.24v-69.237L386.8-299.8v69.237l-34.62 59.962Zm-2.308 8.614-30.003 51.967v60.007l30.003-51.968v-60.006Zm2.308 56.009v-60.007l34.62-59.962v60.007l-34.62 59.962Zm-2.308 8.613-30.003 51.967V23.84l30.003-51.968v-69.237Zm2.308 65.24v-69.237l34.62-59.963v69.237l-34.62 59.963Zm-2.308 8.613-30.003 51.968v60.007l30.003-51.968v-60.007Zm2.308 56.01V-27.51l34.62-59.962v60.006l-34.62 59.963Zm-2.308 8.613-30.003 51.967v69.238l30.003-51.967V41.111Zm2.308 65.24V37.114L386.8-22.85v69.237l-34.62 59.963Zm-2.308 8.613-30.003 51.968v60.006l30.003-51.967v-60.007Zm2.308 56.01v-60.007l34.62-59.963v60.007l-34.62 59.963Zm-2.308 8.613-30.003 51.967v69.245l30.003-51.967v-69.245Zm2.308 65.248v-69.246l34.62-59.962v69.245l-34.62 59.963Zm-2.308 8.613-30.003 51.967v60.007l30.003-51.967v-60.007Zm2.308 56.009v-60.006l34.62-59.963v60.007l-34.62 59.962Zm-2.308 8.614-30.003 51.967v69.237l30.003-51.967v-69.237Zm2.308 65.239v-69.237l34.62-59.962v69.237l-34.62 59.962Zm-2.308 8.614-30.003 51.967v60.007l30.003-51.967v-60.007Zm2.308 56.009v-60.006l34.62-59.963v60.007l-34.62 59.962Zm-2.308 8.614-30.003 51.967v69.237l30.003-51.967v-69.237Zm2.308 65.239v-69.237l34.62-59.962v69.237l-34.62 59.962Zm-2.308 8.614-30.003 51.967v60.007l30.003-51.968V530.4Zm2.308 56.009v-60.007l34.62-59.962v60.007l-34.62 59.962Zm-2.308 8.613-30.003 51.968v69.237l30.003-51.967v-69.238Zm2.308 65.24v-69.237l34.62-59.963V600.3l-34.62 59.962Zm-2.308 8.614-30.003 51.967v60.007l30.003-51.968v-60.006Zm2.308 56.009v-60.007l34.62-59.962v60.007l-34.62 59.962Zm-2.308 8.613-30.003 51.968v69.237l30.003-51.967v-69.238Zm2.308 65.24v-69.237l34.62-59.962v69.237l-34.62 59.962Zm-2.308 8.614-30.003 51.967v60.007l30.003-51.968v-60.006Zm2.308 56.009v-60.007l34.62-59.962v60.007l-34.62 59.962Zm-2.308 8.613-30.003 51.967v69.239l30.003-51.969v-69.237Zm2.308 65.24v-69.237l34.62-59.963v69.238l-34.62 59.962Zm-2.308 8.614-30.003 51.962v60.01l30.003-51.97v-60.002Zm2.308 56.012v-60.01l34.62-59.962v60.006l-34.62 59.966Zm-2.308 8.61-30.003 51.97v69.24l30.003-51.96v-69.25Zm2.308 65.25v-69.25l34.62-59.96v69.25l-34.62 59.96Zm36.928-63.96 30.003-51.97v-69.245l-30.003 51.968v69.247Zm0-73.863 30.003-51.968v-60.006l-30.003 51.967v60.007Zm0-64.623 30.003-51.967V752.05l-30.003 51.967v69.237Zm0-73.853 30.003-51.967v-60.007l-30.003 51.967v60.007Zm0-64.623 30.003-51.967v-69.237l-30.003 51.967v69.237Zm0-73.853 30.003-51.967v-60.007l-30.003 51.968v60.006Zm0-64.622 30.003-51.968v-69.237l-30.003 51.967v69.238Zm0-73.854 30.003-51.967v-60.007l-30.003 51.968v60.006Zm0-64.622 30.003-51.968v-69.237l-30.003 51.967v69.238Zm0-73.854 30.003-51.967V272l-30.003 51.967v60.006Zm0-64.622 30.003-51.968v-69.237l-30.003 51.967v69.238Zm0-73.853 30.003-51.968v-60.007l-30.003 51.968v60.007Zm0-64.623 30.003-51.967V59.662l-30.003 51.968v69.245Zm0-73.861 30.003-51.968V-4.96l-30.003 51.968v60.007Zm0-64.623 30.003-51.967v-69.238l-30.003 51.968V42.39Zm0-73.853 30.003-51.968v-60.006l-30.003 51.967v60.007Zm0-64.623 30.003-51.967v-69.237l-30.003 51.967v69.237Zm0-73.853 30.003-51.967v-60.007l-30.003 51.967v60.007Zm0-64.622 30.003-51.968v-69.237l-30.003 51.967v69.238Zm0-73.854 30.003-51.967v-60.007l-30.003 51.968v60.006Zm0-64.622 30.003-51.968v-69.237l-30.003 51.967v69.238Zm0-73.854 30.003-51.967v-60.007l-30.003 51.968v60.006Zm0-64.622 30.003-51.968v-69.237l-30.003 51.968v69.237Zm0-73.853 30.003-51.968v-60.006l-30.003 51.967v60.007Zm0-64.623 30.003-51.967v-36.84h-18.705l-11.298 19.57v69.237Zm0-73.853 8.633-14.954h-8.633v14.954Zm9.966-17.262 103.495-179.26-25.984-15.001L352.18-719.888v60.006l34.62-59.962v-21.259h12.274Zm22.345 39.766v60.007l34.619-59.963v-39.81h22.985l83.508-144.64-25.984-15.002-115.128 199.408Zm56.271-37.458h-19.344v33.505l19.344-33.505Zm-21.652 42.118-34.619 59.963v69.237l34.619-59.962v-69.238Zm2.308 65.24v-69.237l22.009-38.121h7.994v55.391l-30.003 51.967Zm-2.308 8.614-34.619 59.962v60.007l34.619-59.963v-60.006Zm2.308 56.009v-60.007l30.003-51.967v60.006l-30.003 51.968Zm-2.308 8.613-34.619 59.962v69.238l34.619-59.963v-69.237Zm2.308 65.24v-69.237l30.003-51.968v69.238l-30.003 51.967Zm-2.308 8.613-34.619 59.963v60.006l34.619-59.962v-60.007Zm2.308 56.01v-60.007l30.003-51.967v60.006l-30.003 51.968Zm-2.308 8.613-34.619 59.962v69.238l34.619-59.963v-69.237Zm2.308 65.24v-69.237l30.003-51.968v69.238l-30.003 51.967Zm-2.308 8.613-34.619 59.963v60.006l34.619-59.962v-60.007Zm2.308 56.01v-60.007l30.003-51.968v60.007l-30.003 51.968Zm-2.308 8.613-34.619 59.962v69.238l34.619-59.963v-69.237Zm2.308 65.24v-69.238l30.003-51.967v69.237l-30.003 51.968Zm-2.308 8.613-34.619 59.962v60.007l34.619-59.962v-60.007Zm2.308 56.009v-60.006l30.003-51.968v60.007l-30.003 51.967Zm-2.308 8.614-34.619 59.962v69.237l34.619-59.962v-69.237Zm2.308 65.24v-69.238l30.003-51.967v69.237l-30.003 51.967Zm-2.308 8.613L421.419-8.958v60.007l34.619-59.963V-68.92Zm2.308 56.009v-60.007l30.003-51.967v60.007l-30.003 51.967Zm-2.308 8.613-34.619 59.963v69.245l34.619-59.962V-4.298Zm2.308 65.248V-8.295l30.003-51.968V8.983L458.346 60.95Zm-2.308 8.613-34.619 59.963v60.007l34.619-59.963V69.563Zm2.308 56.01V65.566l30.003-51.968v60.008l-30.003 51.967Zm-2.308 8.613-34.619 59.962v69.238l34.619-59.962v-69.238Zm2.308 65.24v-69.237l30.003-51.968v69.238l-30.003 51.967Zm-2.308 8.614-34.619 59.962v60.007l34.619-59.963V208.04Zm2.308 56.009v-60.007l30.003-51.967v60.006l-30.003 51.968Zm-2.308 8.613-34.619 59.963v69.237l34.619-59.963v-69.237Zm2.308 65.24v-69.237l30.003-51.968v69.238l-30.003 51.967Zm-2.308 8.614-34.619 59.962v60.006l34.619-59.962v-60.006Zm2.308 56.009v-60.007l30.003-51.967v60.006l-30.003 51.968Zm-2.308 8.613L421.419 471.1v69.238l34.619-59.963v-69.237Zm2.308 65.24V407.14l30.003-51.967v69.238l-30.003 51.967Zm-2.308 8.613-34.619 59.963v60.006l34.619-59.962v-60.007Zm2.308 56.01v-60.007l30.003-51.968v60.007l-30.003 51.968Zm-2.308 8.613-34.619 59.962v69.238l34.619-59.963v-69.237Zm2.308 65.24v-69.238l30.003-51.967v69.237l-30.003 51.968Zm-2.308 8.613-34.619 59.962v60.007l34.619-59.962v-60.007Zm2.308 56.009V619.47l30.003-51.968v60.007l-30.003 51.967Zm-2.308 8.614-34.619 59.962v69.237l34.619-59.962V688.09Zm2.308 65.239v-69.237l30.003-51.967v69.237l-30.003 51.967Zm-2.308 8.614-34.619 59.963v60.006l34.619-59.962v-60.007Zm2.308 56.009v-60.006l30.003-51.968v60.007l-30.003 51.967Zm-2.308 8.614-34.619 59.962v69.245l34.619-59.962v-69.245Zm2.308 65.247v-69.245l30.003-51.967v69.245l-30.003 51.967Zm32.311-55.965 34.62-59.962v-69.245l-34.62 59.962v69.245Zm0-73.861 34.62-59.962v-60.006l-34.62 59.962v60.006Zm0-64.622 34.62-59.963v-69.237l-34.62 59.962v69.238Zm0-73.853 34.62-59.963v-60.007l-34.62 59.963v60.007Zm0-64.623 34.62-59.962v-69.238l-34.62 59.962v69.238Zm0-73.853 34.62-59.963v-60.006l-34.62 59.962v60.007Zm0-64.623 34.62-59.962v-69.238l-34.62 59.963v69.237Zm0-73.853 34.62-59.963v-60.006l-34.62 59.962v60.007Zm0-64.623 34.62-59.962v-69.237l-34.62 59.962v69.237Zm0-73.853 34.62-59.962V88.115l-34.62 59.962v60.007Zm0-64.623 34.62-59.962V14.26l-34.62 59.963v69.237Zm0-73.853 34.62-59.962v-60.007L490.657 9.6v60.007Zm0-64.623 34.62-59.962v-69.245l-34.62 59.962V4.985Zm0-73.861 34.62-59.962v-60.007l-34.62 59.963v60.006Zm0-64.622 34.62-59.963v-69.237l-34.62 59.962v69.238Zm0-73.853 34.62-59.963v-60.006l-34.62 59.962v60.007Zm0-64.623 34.62-59.962v-69.238l-34.62 59.963v69.237Zm0-73.853 34.62-59.963v-60.006l-34.62 59.962v60.007Zm0-64.623 34.62-59.962v-69.238l-34.62 59.963v69.237Zm0-73.853 34.62-59.962v-60.007l-34.62 59.962v60.007Zm0-64.623 34.62-59.962v-69.237l-34.62 59.962v69.237Zm0-73.853 34.62-59.962v-58.362h33.695l63.52-110.021-25.983-15.002-105.852 183.34v60.007Zm66.931-115.927v-.089h-30.004v52.056l30.004-51.967Zm-30.004 56.583v69.237l30.004-51.967v-69.237l-30.004 51.967Zm30.004 21.886-30.004 51.967v60.007l30.004-51.967v-60.007Zm0 64.623-30.004 51.967v69.237l30.004-51.967v-69.237Zm2.308 65.239v-69.237l34.619-59.962v69.237l-34.619 59.962Zm-2.308 8.614-30.004 51.967v60.007l30.004-51.967v-60.007Zm2.308 56.009v-60.007l34.619-59.962v60.007l-34.619 59.962Zm-2.308 8.613-30.004 51.968v69.237l30.004-51.967v-69.238Zm2.308 65.24v-69.237l34.619-59.962v69.237l-34.619 59.962Zm-2.308 8.614-30.004 51.967v60.007l30.004-51.968v-60.006Zm2.308 56.009v-60.007l34.619-59.962v60.007l-34.619 59.962Zm-2.308 8.613-30.004 51.968v69.237l30.004-51.967v-69.238Zm2.308 65.24v-69.237l34.619-59.962v69.237l-34.619 59.962Zm-2.308 8.613-30.004 51.968v60.007l30.004-51.968v-60.007Zm2.308 56.01v-60.007l34.619-59.962v60.006L559.896-188.8Zm-2.308 8.613-30.004 51.967v69.245l30.004-51.967v-69.245Zm2.308 65.248v-69.245l34.619-59.963v69.246l-34.619 59.962Zm-2.308 8.613-30.004 51.967V5.648l30.004-51.967v-60.007Zm2.308 56.01v-60.008l34.619-59.962v60.007l-34.619 59.962Zm-2.308 8.613-30.004 51.967v69.238l30.004-51.968v-69.238Zm2.308 65.24v-69.238l34.619-59.962v69.237l-34.619 59.963Zm-2.308 8.613-30.004 51.968v60.006l30.004-51.967V32.15Zm2.308 56.009V28.152l34.619-59.962v60.007l-34.619 59.962Zm-2.308 8.614-30.004 51.967v69.237l30.004-51.967V96.773Zm2.308 65.239V92.775l34.619-59.962v69.237l-34.619 59.962Zm-2.308 8.614-30.004 51.968V282.6l30.004-51.967v-60.007Zm2.308 56.009v-60.006l34.619-59.962v60.006l-34.619 59.962Zm-2.308 8.613-30.004 51.968v69.237l30.004-51.967v-69.238Zm2.308 65.24v-69.237l34.619-59.962v69.237l-34.619 59.962Zm-2.308 8.614-30.004 51.967v60.007l30.004-51.968v-60.006Zm2.308 56.009v-60.007l34.619-59.962v60.007l-34.619 59.962Zm-2.308 8.613-30.004 51.968v69.237l30.004-51.967v-69.238Zm2.308 65.24v-69.237l34.619-59.962v69.237l-34.619 59.962Zm-2.308 8.614-30.004 51.967v60.007l30.004-51.968v-60.006Zm2.308 56.009V443.58l34.619-59.962v60.007l-34.619 59.962Zm-2.308 8.613-30.004 51.968v69.237l30.004-51.967V512.2Zm2.308 65.24v-69.237l34.619-59.963v69.238l-34.619 59.962Zm-2.308 8.614-30.004 51.967v60.007l30.004-51.968v-60.006Zm2.308 56.009v-60.007l34.619-59.962V582.1l-34.619 59.963Zm-2.308 8.613-30.004 51.968v69.245l30.004-51.968v-69.245Zm2.308 65.248v-69.245l34.619-59.963v69.245l-34.619 59.963Zm36.927-63.96 30.003-51.967v-69.246l-30.003 51.968v69.245Zm0-73.861 30.003-51.968v-60.006l-30.003 51.967v60.007Zm0-64.623 30.003-51.967v-69.237l-30.003 51.967v69.237Zm0-73.853 30.003-51.967v-60.007l-30.003 51.967v60.007Zm0-64.622 30.003-51.968V253.8l-30.003 51.967v69.238Zm0-73.854 30.003-51.967v-60.007l-30.003 51.968v60.006Zm0-64.622 30.003-51.968v-69.237l-30.003 51.967v69.238Zm0-73.854 30.003-51.967V50.701l-30.003 51.968v60.006Zm0-64.622 30.003-51.968v-69.237l-30.003 51.967v69.238Zm0-73.854 30.003-51.967v-60.007l-30.003 51.968v60.006Zm0-64.622 30.003-51.968v-69.237l-30.003 51.967v69.238Zm0-73.854 30.003-51.967v-60.006l-30.003 51.967v60.006Zm0-64.622 30.003-51.967v-69.246l-30.003 51.968v69.245Zm0-73.861 30.003-51.967v-60.007l-30.003 51.967v60.007Zm0-64.623 30.003-51.967v-69.237l-30.003 51.967v69.237Zm0-73.853 30.003-51.967v-60.007l-30.003 51.967v60.007Zm0-64.622 30.003-51.968v-69.237l-30.003 51.967v69.238Zm0-73.854 30.003-51.967v-60.007l-30.003 51.968v60.006Zm0-64.622 30.003-51.968v-69.237l-30.003 51.967v69.238Zm0-73.854 30.003-51.967v-18.64h-23.883l-6.12 10.601v60.006Zm-2.308-56.009-34.619 59.962v60.007l34.619-59.962v-60.007Zm2.308-8.613 3.456-5.985h-3.456v5.985Zm7.453-8.293h24.858v16.951l53.32-92.353-25.984-15.001-52.194 90.403Zm24.858 95.42v60.007l34.62-59.963v-60.007l-34.62 59.963Zm36.928-63.96v60.007l30.003-51.968v-37.191h-13.172l-16.831 29.152Zm14.166-29.152h-14.166v24.536l14.166-24.536Zm3.997-2.308h14.148v35.502l44.043-76.285-25.984-15.001-32.207 55.784Zm11.84 44.115-30.003 51.968v69.237l30.003-51.967v-69.238Zm0 73.853-30.003 51.968v60.007l30.003-51.968v-60.007Zm0 64.623-30.003 51.968v69.237l30.003-51.968v-69.237Zm2.308 65.24v-69.237l34.619-59.963v69.238l-34.619 59.962Zm-2.308 8.613-30.003 51.968v60.006l30.003-51.967v-60.007Zm2.308 56.01v-60.007l34.619-59.962v60.006l-34.619 59.963Zm-2.308 8.613-30.003 51.967v69.245l30.003-51.967v-69.245Zm2.308 65.248v-69.246l34.619-59.962v69.245l-34.619 59.963Zm-2.308 8.613-30.003 51.967v60.007l30.003-51.967v-60.007Zm2.308 56.009v-60.007l34.619-59.962v60.007l-34.619 59.962Zm-2.308 8.614-30.003 51.967v69.237l30.003-51.967v-69.237Zm2.308 65.24v-69.238l34.619-59.962v69.237l-34.619 59.963Zm-2.308 8.613-30.003 51.967v60.007l30.003-51.967v-60.007Zm2.308 56.009v-60.006l34.619-59.963v60.007l-34.619 59.962Zm-2.308 8.614-30.003 51.967v69.237l30.003-51.967v-69.237Zm2.308 65.24v-69.238l34.619-59.962v69.237l-34.619 59.962Zm-2.308 8.613-30.003 51.967v60.007l30.003-51.968v-60.006Zm2.308 56.009v-60.007l34.619-59.962v60.006l-34.619 59.963Zm-2.308 8.613-30.003 51.967v69.238l30.003-51.968V-4.6Zm2.308 65.24V-8.598l34.619-59.963V.677l-34.619 59.962Zm-2.308 8.613-30.003 51.968v60.007l30.003-51.968V69.252Zm2.308 56.01V65.255l34.619-59.962v60.006l-34.619 59.963Zm-2.308 8.613-30.003 51.967v69.238l30.003-51.968v-69.237Zm2.308 65.24v-69.237l34.619-59.963v69.238l-34.619 59.962Zm-2.308 8.614-30.003 51.967v60.007l30.003-51.968v-60.006Zm2.308 56.009v-60.007l34.619-59.962v60.006l-34.619 59.963Zm-2.308 8.613-30.003 51.967v69.238l30.003-51.968v-69.237Zm2.308 65.24v-69.237l34.619-59.963v69.237l-34.619 59.963Zm-2.308 8.613-30.003 51.968v60.006l30.003-51.967v-60.007Zm2.308 56.009v-60.006l34.619-59.962v60.006l-34.619 59.962Zm-2.308 8.614-30.003 51.967v69.245l30.003-51.967v-69.245Zm2.308 65.247v-69.245l34.619-59.962v69.245l-34.619 59.962Zm36.927-63.959 30.003-51.968v-69.245L735.3 342.87v69.245Zm0-73.861 30.003-51.968V226.28L735.3 278.247v60.007Zm0-64.623 30.003-51.967v-69.238L735.3 204.394v69.237Zm0-73.853 30.003-51.967V87.804L735.3 139.77v60.007Zm0-64.623 30.003-51.967V13.95L735.3 65.918v69.237Zm0-73.853 30.003-51.968v-60.006L735.3 1.295v60.007Zm0-64.623 30.003-51.967v-69.238L735.3-72.558v69.237Zm0-73.853 30.003-51.967v-60.007L735.3-137.18v60.006Zm0-64.622 30.003-51.968v-69.237L735.3-211.034v69.238Zm0-73.854 30.003-51.967v-60.007L735.3-275.656v60.006Zm0-64.622 30.003-51.968v-69.237L735.3-349.51v69.238Zm0-73.854 30.003-51.967V-466.1L735.3-414.132v60.006Zm0-64.622 30.003-51.968v-69.245L735.3-487.993v69.245Zm0-73.861 30.003-51.968v-60.006L735.3-552.616v60.007Zm0-64.623 30.003-51.967v-69.237L735.3-626.469v69.237Zm0-73.853 30.003-51.967v-55.743h-2.461L735.3-691.092v60.007Zm-2.308-56.009-34.619 59.962v60.007l34.619-59.963v-60.006Zm2.308-8.614 24.877-43.087H735.3v43.087Zm28.874-45.395h3.437v54.053l34.766-60.216-25.983-15.002-12.22 21.165Zm3.437 132.522v60.007l34.62-59.963v-60.006l-34.62 59.962Zm36.928-63.96v60.007l30.003-51.967v-60.007l-30.003 51.967Zm30.003-56.583v-9.671h-30.003v61.638l30.003-51.967Zm2.308 1.761v58.864l25.489-44.148-25.489-14.716Zm-2.308 67.477-30.003 51.968v69.245l30.003-51.967v-69.246Zm0 73.862-30.003 51.967v60.007l30.003-51.968v-60.006Zm0 64.622-30.003 51.968v69.237l30.003-51.967v-69.238Zm2.308 65.24v-69.237l34.619-59.962v69.237l-34.619 59.962Zm-2.308 8.614-30.003 51.967v60.007l30.003-51.968v-60.006Zm2.308 56.009v-60.007l34.619-59.962v60.007l-34.619 59.962Zm-2.308 8.613-30.003 51.968v69.237l30.003-51.968v-69.237Zm2.308 65.24v-69.237l34.619-59.962v69.237l-34.619 59.962Zm-2.308 8.614-30.003 51.967v60.006l30.003-51.967v-60.006Zm2.308 56.009v-60.007l34.619-59.962v60.006l-34.619 59.963Zm-2.308 8.613-30.003 51.967v69.238l30.003-51.968v-69.237Zm2.308 65.24v-69.238l34.619-59.962v69.238L836.85-179.21Zm-2.308 8.613-30.003 51.967v60.007l30.003-51.967v-60.007Zm2.308 56.009v-60.006l34.619-59.962v60.006l-34.619 59.962Zm-2.308 8.613-30.003 51.968V15.23l30.003-51.967v-69.238Zm2.308 65.24v-69.237l34.619-59.962v69.237L836.85-40.735Zm-2.308 8.614-30.003 51.967v60.007l30.003-51.967v-60.007Zm2.308 56.01V-36.12l34.619-59.962v60.007L836.85 23.888Zm-2.308 8.612L804.539 84.47v69.237l30.003-51.967V32.501Zm2.308 65.24V28.504l34.619-59.962v69.237L836.85 97.741Zm-2.308 8.614-30.003 51.967v60.007l30.003-51.968v-60.006Zm2.308 56.009v-60.006l34.619-59.963v60.007l-34.619 59.962Zm-2.308 8.613-30.003 51.968v69.245l30.003-51.967v-69.246Zm2.308 65.248V166.98l34.619-59.962v69.245l-34.619 59.962Zm36.927-63.96 30.003-51.967V51.053l-30.003 51.967v69.245Zm0-73.861 30.003-51.967V-13.57l-30.003 51.968v60.006Zm0-64.623 30.003-51.967v-69.237l-30.003 51.967v69.237Zm0-73.853 30.003-51.967v-60.006l-30.003 51.967v60.006Zm0-64.622 30.003-51.967v-69.238l-30.003 51.967v69.238Zm0-73.853 30.003-51.968v-60.006l-30.003 51.967v60.007Zm0-64.623 30.003-51.967v-69.238l-30.003 51.968v69.237Zm0-73.853 30.003-51.967v-60.007l-30.003 51.967v60.007Zm0-64.623 30.003-51.967v-69.237l-30.003 51.967v69.237Zm0-73.853 30.003-51.967v-60.007l-30.003 51.967v60.007Zm0-64.623 30.003-51.967v-69.237l-30.003 51.967v69.237Zm0-73.853 30.003-51.967v-42.781l-7.46-4.306-22.543 39.047v60.007Zm-2.308-56.009-34.619 59.962v60.007l34.619-59.962v-60.007Zm2.308-8.614 21.703-37.584 8.3 4.794v-47.407h-30.003v80.197Zm32.313-28.792v37.45l16.22-28.088-16.22-9.362Zm0 115.92v60.006l34.62-59.962v-60.007l-34.62 59.963Zm36.93-63.96v60.007l30-51.968v-21.357l-16.74-9.662-13.26 22.98Zm30-15.983v-87.382h-30v98.749l12.42-21.517 17.58 10.15Zm2.31 3.998v16.027l6.94-12.021-6.94-4.006Zm-2.31 24.64-30 51.967v69.238l30-51.968v-69.237Zm0 73.854-30 51.967v60.006l30-51.967v-60.006Zm0 64.622-30 51.967v69.238l30-51.968v-69.237Zm2.31 65.24v-69.238l34.62-59.962v69.238l-34.62 59.962Zm-2.31 8.613-30 51.967v60.007l30-51.967v-60.007Zm2.31 56.009v-60.006l34.62-59.962v60.006l-34.62 59.962Zm-2.31 8.614-30 51.967v69.237l30-51.967v-69.237Zm2.31 65.239v-69.237l34.62-59.962v69.237l-34.62 59.962Zm-2.31 8.614-30 51.967v60.007l30-51.967v-60.007Zm2.31 56.009v-60.007l34.62-59.962v60.007l-34.62 59.962Zm-2.31 8.614-30 51.967v69.237l30-51.967v-69.237Zm2.31 65.239v-69.237l34.62-59.962v69.237l-34.62 59.962Zm-2.31 8.614-30 51.967v60.007l30-51.968v-60.006Zm2.31 56.008v-60.006l34.62-59.962v60.007l-34.62 59.962Zm-2.31 8.614-30 51.967V52.34l30-51.967v-69.245Zm2.31 65.248V-72.87l34.62-59.961v69.245L975.33-3.624Zm36.92-63.96 30.01-51.967v-69.245l-30.01 51.967v69.245Zm0-73.861 30.01-51.967v-60.007l-30.01 51.968v60.006Zm0-64.623 30.01-51.967v-69.237l-30.01 51.967v69.237Zm0-73.853 30.01-51.967v-60.007l-30.01 51.968v60.006Zm0-64.622 30.01-51.967v-69.238l-30.01 51.967v69.238Zm0-73.854 30.01-51.967v-60.006l-30.01 51.967v60.006Zm0-64.622 30.01-51.967v-69.238l-30.01 51.967v69.238Zm0-73.853 29.98-51.917-25.99-15.002-3.99 6.912v60.007Zm-2.3-56.009-34.62 59.962v60.006l34.62-59.962v-60.006Zm2.3-8.614 3.15-5.449 26.86 15.506v-127.357h-30.01v117.3Zm32.32 87.127v60.006l34.61-59.962v-53.128l-2.97-1.72-31.64 54.804Zm36.92-51.752v47.799l20.7-35.849-20.7-11.95Zm-2.31 56.412-34.61 59.962v69.238l34.61-59.962v-69.238Zm2.31 65.24v-69.237l23.85-41.31-23.85-13.77v-150.01h30.01v222.36l-30.01 51.967Zm-2.31 8.614-34.61 59.962v60.007l34.61-59.963v-60.006Zm2.31 56.009v-60.007l30.01-51.967v60.007l-30.01 51.967Zm-2.31 8.613-34.61 59.962v69.238l34.61-59.963v-69.237Zm2.31 65.24v-69.237l30.01-51.968v69.238l-30.01 51.967Zm-2.31 8.614-34.61 59.962v60.006l34.61-59.962v-60.006Zm2.31 56.008v-60.006l30.01-51.967v60.006l-30.01 51.967Zm-2.31 8.614-34.61 59.962v69.245l34.61-59.962v-69.245Zm2.31 65.247v-69.245l30.01-51.967v69.245l-30.01 51.967Zm32.31-129.825 108.31-187.598-25.98-15.001-82.33 142.593v60.006Zm0-138.476 48.35-83.741-25.98-15.001-22.37 38.735v60.007ZM940.71 56.338v-69.245l-34.62 59.962V116.3l34.62-59.962Zm-34.62-13.899 34.62-59.962v-60.006l-34.62 59.962v60.006Zm0-64.623 34.62-59.962v-69.237l-34.62 59.962v69.238Zm0-73.853 34.62-59.961v-60.007l-34.62 59.962v60.006Zm0-64.622 34.62-59.962v-69.238l-34.62 59.963v69.237Zm0-73.853 34.62-59.962v-60.007l-34.62 59.962v60.007Zm0-64.623 34.62-59.962v-69.237l-34.62 59.962v69.237Zm0-73.853 34.62-59.962v-60.007l-34.62 59.963v60.006Zm0-64.623 34.62-59.962v-69.237l-34.62 59.962v69.237ZM802.231 296.187v-69.245l-34.62 59.963v69.245l34.62-59.963Zm-34.62-13.898 34.62-59.963V162.32l-34.62 59.962v60.007Zm0-64.623 34.62-59.962V88.466l-34.62 59.963v69.237Zm0-73.853 34.62-59.962V23.844l-34.62 59.962v60.007Zm0-64.623 34.62-59.962V-50.01l-34.62 59.963V79.19Zm0-73.853 34.62-59.963v-60.006l-34.62 59.962V5.337Zm0-64.623 34.62-59.962v-69.237l-34.62 59.962v69.237Zm0-73.853 34.62-59.962v-60.007l-34.62 59.963v60.006Zm0-64.622 34.62-59.963v-69.237l-34.62 59.963v69.237Zm0-73.853 34.62-59.963v-60.006l-34.62 59.962v60.007Zm0-64.623 34.62-59.962v-69.238l-34.62 59.963v69.237Zm0-73.853 34.62-59.963v-60.007l-34.62 59.963v60.007Zm0-64.623 34.62-59.963v-69.245l-34.62 59.963v69.245ZM663.754 536.037v-69.245l-34.62 59.962v69.245l34.62-59.962Zm-34.62-13.899 34.62-59.962v-60.007l-34.62 59.963v60.006Zm0-64.623 34.62-59.962v-69.237l-34.62 59.962v69.237Zm0-73.853 34.62-59.962v-60.007l-34.62 59.963v60.006Zm0-64.622 34.62-59.963V189.84l-34.62 59.962v69.238Zm0-73.854 34.62-59.962v-60.006l-34.62 59.962v60.006Zm0-64.622 34.62-59.962V51.364l-34.62 59.962v69.238Zm0-73.854 34.62-59.962v-60.006l-34.62 59.962v60.006Zm0-64.622 34.62-59.963v-69.237l-34.62 59.962v69.238Zm0-73.853 34.62-59.963v-60.006l-34.62 59.962v60.007Zm0-64.623 34.62-59.962v-69.238l-34.62 59.963v69.237Zm0-73.853 34.62-59.962v-60.007l-34.62 59.962v60.007Zm0-64.623 34.62-59.962v-69.245l-34.62 59.962v69.245Zm0-73.861 34.62-59.962v-60.007l-34.62 59.962v60.007Zm0-64.622 34.62-59.963v-69.237l-34.62 59.962v69.238Zm0-73.854 34.62-59.962v-60.007l-34.62 59.963v60.006Zm0-64.622 34.62-59.963v-69.237l-34.62 59.962v69.238Z" fill="#D0D5DD"/></g><path fill-rule="evenodd" clip-rule="evenodd" d="M698.468 366.396c0-1.224-1.037-2.217-2.314-2.217h-523.84c-1.277 0-2.314.993-2.314 2.217v.386c0 1.224 1.037 2.218 2.314 2.218h523.84c1.277 0 2.314-.994 2.314-2.218v-.386Z" fill="#A8A8A8"/><path fill-rule="evenodd" clip-rule="evenodd" d="M520.023 206.571s25.677-49.533 76.231-47.078c0 0 12.137 39.274-7.886 85.242l-68.345 21.423v-59.587Z" fill="url(#b)"/><path fill-rule="evenodd" clip-rule="evenodd" d="M594.81 159.438c.482.014.96.032 1.44.056 0 0 .028.089.078.265-2.843 2.923-8.8 9.167-16.235 17.631h19.256c.038.421.075.849.111 1.285h-20.493a513.525 513.525 0 0 0-13.532 16.151l34.39-.941c-.014.426-.029.855-.047 1.288l-35.395.968a431.2 431.2 0 0 0-12.154 15.97l46.003-1.257c-.067.429-.137.86-.208 1.292l-46.74 1.277c-4.732 6.601-9.348 13.486-13.579 20.478l56.424-4.926c-.132.441-.266.883-.403 1.326l-56.84 4.963c-3.653 6.121-7.001 12.316-9.865 18.464l46.799-4.433-5.907 1.851-41.513 3.933a137.76 137.76 0 0 0-4.252 10.412l-1.594.5a135.411 135.411 0 0 1 4.362-10.853.65.65 0 0 1-.395-.487l-4.501-26.752v-8.074l5.661 33.641c2.907-6.263 6.316-12.576 10.044-18.821l-8.542-39.043c.343-.457.697-.922 1.065-1.396l8.482 38.77c4.27-7.03 8.92-13.95 13.687-20.583l-9.484-31.906a106.7 106.7 0 0 1 1.103-.982l9.369 31.519a434.28 434.28 0 0 1 11.919-15.649l-6.574-26.381c.4-.227.805-.451 1.211-.672l6.415 25.738a517.734 517.734 0 0 1 13.58-16.214l-2.406-16.382c.434-.107.87-.21 1.309-.309l2.257 15.365c5.06-5.758 10.235-11.427 15.57-16.954l.124-.128Z" fill="url(#c)"/><path fill-rule="evenodd" clip-rule="evenodd" d="M505.969 276.51c9.27-25.811 36.669-41.205 39.114-18.289 9.388-30.908 32.432-47.637 38.155-23.314 7.427-17.033 31.096-38.74 46.826-26.894 19.882 14.973-9.285 44.63-16.969 54.002 30.611-7.364 10.113 38.572-18.886 49.315 32.649-4.889 30.909 31.231-21.484 53.556h-66.756V276.51Z" fill="url(#d)"/><path fill-rule="evenodd" clip-rule="evenodd" d="M505.969 362.775v2.112h1.277l25.159-31.961 73.73-5.792c.645-.051 1.127-.595 1.074-1.213-.053-.619-.62-1.08-1.266-1.03l-71.644 5.629 32.868-41.755 44.204-8.318c.635-.12 1.05-.711.925-1.321-.124-.609-.742-1.006-1.377-.887l-41.634 7.835 50.273-63.866a1.095 1.095 0 0 0-.23-1.575 1.208 1.208 0 0 0-1.644.221l-50.076 63.616 3.185-41.752c.048-.619-.438-1.158-1.084-1.204-.646-.045-1.209.421-1.256 1.04l-3.447 45.169-.003.055-32.463 41.241-4.826-63.879c-.047-.62-.61-1.086-1.256-1.041-.646.045-1.132.584-1.086 1.203l5.021 66.445-24.424 31.028Z" fill="url(#e)"/><path fill-rule="evenodd" clip-rule="evenodd" d="M546.015 364.886s-13.974-14.319 2.834-32.246c0 0 17.178 5.128 17.178 19.433 0 0-3.144-37.721 36.099-44.964 0 0 12.658 20.592-4.715 43.689 0 0 8.048-14.607 35.283-9.387 0 0-.725 18.629-17.91 23.475h-68.769Z" fill="url(#f)"/><path fill-rule="evenodd" clip-rule="evenodd" d="M344.508 206.571s-25.677-49.533-76.231-47.078c0 0-12.137 39.274 7.886 85.242l68.345 21.423v-59.587Z" fill="url(#g)"/><path fill-rule="evenodd" clip-rule="evenodd" d="M269.721 159.438c-.481.014-.959.032-1.44.056l-.078.265c2.843 2.923 8.8 9.167 16.235 17.631h-19.256c-.038.421-.075.849-.11 1.285h20.492a514.846 514.846 0 0 1 13.533 16.151l-34.391-.941c.014.426.029.855.047 1.288l35.396.968a431.198 431.198 0 0 1 12.153 15.97l-46.003-1.257c.067.429.137.86.209 1.292l46.739 1.277c4.732 6.601 9.348 13.486 13.579 20.478l-56.424-4.926c.132.441.266.883.404 1.326l56.839 4.963c3.653 6.121 7.001 12.316 9.865 18.464l-46.798-4.433 5.906 1.851 41.513 3.933a137.777 137.777 0 0 1 4.253 10.412l1.593.5a135.411 135.411 0 0 0-4.362-10.853.65.65 0 0 0 .395-.487l4.502-26.752v-8.074l-5.661 33.641c-2.907-6.263-6.316-12.576-10.045-18.821l8.542-39.043c-.343-.457-.697-.922-1.065-1.396l-8.482 38.77c-4.269-7.03-8.92-13.95-13.687-20.583l9.484-31.906a97.212 97.212 0 0 0-1.103-.982l-9.368 31.519a435.448 435.448 0 0 0-11.92-15.649l6.575-26.381a78.485 78.485 0 0 0-1.212-.672l-6.415 25.738a516.358 516.358 0 0 0-13.58-16.214l2.407-16.382c-.435-.107-.871-.21-1.309-.309l-2.258 15.365c-5.06-5.758-10.235-11.427-15.57-16.954l-.124-.128Z" fill="url(#h)"/><path fill-rule="evenodd" clip-rule="evenodd" d="M358.562 276.51c-9.269-25.811-36.668-41.205-39.114-18.289-9.387-30.908-32.431-47.637-38.155-23.314-7.426-17.033-31.095-38.74-46.825-26.894-19.883 14.973 9.285 44.63 16.968 54.002-30.611-7.364-10.113 38.572 18.886 49.315-32.649-4.889-30.908 31.231 21.484 53.556h66.756V276.51Z" fill="url(#i)"/><path fill-rule="evenodd" clip-rule="evenodd" d="M358.562 362.775v2.112h-1.277l-25.159-31.961-73.729-5.792c-.646-.051-1.127-.595-1.074-1.213.053-.619.62-1.08 1.265-1.03l71.644 5.629-32.868-41.755-44.204-8.318c-.635-.12-1.05-.711-.925-1.321.125-.609.742-1.006 1.378-.887l41.633 7.835-50.273-63.866a1.095 1.095 0 0 1 .23-1.575 1.208 1.208 0 0 1 1.644.221l50.077 63.616-3.186-41.752c-.047-.619.439-1.158 1.085-1.204.646-.045 1.208.421 1.256 1.04l3.446 45.169a.52.52 0 0 1 .003.055l32.463 41.241 4.827-63.879c.046-.62.609-1.086 1.255-1.041.646.045 1.133.584 1.086 1.203l-5.02 66.445 24.423 31.028Z" fill="url(#j)"/><path fill-rule="evenodd" clip-rule="evenodd" d="M318.516 364.886s13.974-14.319-2.834-32.246c0 0-17.178 5.128-17.178 19.433 0 0 3.144-37.721-36.099-44.964 0 0-12.658 20.592 4.716 43.689 0 0-8.049-14.607-35.284-9.387 0 0 .726 18.629 17.91 23.475h68.769Z" fill="url(#k)"/><path fill-rule="evenodd" clip-rule="evenodd" d="m353.281 323.187.341 41.433h157.766l2.023-45.23-160.13 3.797Z" fill="#001C51"/><path fill-rule="evenodd" clip-rule="evenodd" d="M353.399 337.44c24.101.949 103.852 3.511 147.419-2.11v29.29h10.57l2.023-45.23-160.13 3.797.118 14.253Z" fill="#001337"/><path fill-rule="evenodd" clip-rule="evenodd" d="M422.914 112.676v35.573c5.578 16.985 26.464 7.627 53.203-3.124l-3.656-55.296-8.122-.684s-2.553 21.354-41.425 23.531Z" fill="#FFC4CD"/><path fill-rule="evenodd" clip-rule="evenodd" d="M422.914 130.054c13.413-.005 40.958-12.534 50.146-31.16l-.599-9.065-8.122-.685s-2.553 21.354-41.425 23.531v17.379Z" fill="#D8738A"/><path fill-rule="evenodd" clip-rule="evenodd" d="M422.918 132.436s-2.182 19.069 9.871 19.069c18.186 0 43.332-19.069 43.332-19.069s50.414 3.044 66.951 25.148c15.379 20.557 10.145 102.085-24.567 121.086 0 0 5.138 40.722-4.262 44.17-18.692 6.856-157.466 8.181-161.618 4.562-13.073-11.396 0-75.918 0-75.918h-36.23s22.619-81.59 36.23-93.9c21.581-19.517 70.293-25.148 70.293-25.148Z" fill="url(#l)"/><path fill-rule="evenodd" clip-rule="evenodd" d="M328.845 210.826c16.722-.381 44.357-.659 44.357-.659l5.887-16.255v16.198l82.526-.223s-.932 11.915 0 11.959c3.873-1.441 7.292-2.96 9.856-4.521 19.551-11.902 31.653-26.314 31.653-26.314l15.388 87.829.018.035c.377 3.117 4.721 40.66-4.288 43.964-1.589.583-4.045 1.126-7.209 1.628 3.972-14.277 5.29-30.725-.584-33.801-2.294-1.202-35.172 7.598-38.144 11.87-3.106 4.466-2.491 16.039-2.481 25.297-47.053 2.199-110.415 1.996-113.2-.432-13.073-11.396 0-75.918 0-75.918h-32.507c-.332-3.336-.648-6.572-.945-9.665 2.249-7.654 5.69-19.02 9.673-30.992Z" fill="url(#m)"/><path fill-rule="evenodd" clip-rule="evenodd" d="M366.446 237.225c.252-.836.469-1.685.651-2.548a.646.646 0 0 0-.525-.758c-.362-.07-.717.155-.79.503a28.98 28.98 0 0 1-.625 2.445.639.639 0 0 0 .458.796.675.675 0 0 0 .831-.438Zm1.326-7.74c.048-.861.067-1.732.057-2.611a.658.658 0 0 0-.678-.636c-.37.004-.667.295-.663.649.009.852-.009 1.695-.055 2.53-.02.354.265.657.634.676.37.019.686-.254.705-.608Zm-.31-7.81a52.661 52.661 0 0 0-.395-2.575c-.062-.349-.409-.585-.774-.525a.647.647 0 0 0-.548.742c.151.843.279 1.681.385 2.513.045.352.38.604.747.561a.65.65 0 0 0 .585-.716Zm-1.541-7.652a67.605 67.605 0 0 0-.731-2.499.677.677 0 0 0-.836-.431.64.64 0 0 0-.449.801c.257.819.496 1.637.718 2.452.093.343.459.55.817.461a.642.642 0 0 0 .481-.784Zm-2.467-7.41a81.633 81.633 0 0 0-.991-2.411.68.68 0 0 0-.875-.349.634.634 0 0 0-.365.839c.34.791.665 1.582.976 2.373.13.333.517.501.863.376a.636.636 0 0 0 .392-.828Zm-3.19-7.14a98.202 98.202 0 0 0-1.201-2.319.684.684 0 0 0-.902-.278.63.63 0 0 0-.291.865c.406.76.801 1.523 1.184 2.288.16.32.561.455.895.301a.63.63 0 0 0 .315-.857Zm-3.784-6.862c-.449-.745-.908-1.487-1.377-2.224a.688.688 0 0 0-.922-.214.628.628 0 0 0-.224.883c.464.729.918 1.461 1.362 2.198a.687.687 0 0 0 .916.235.629.629 0 0 0 .245-.878Zm-4.293-6.576a113.347 113.347 0 0 0-1.535-2.126.69.69 0 0 0-.935-.153.626.626 0 0 0-.16.896c.514.695 1.021 1.396 1.518 2.103a.69.69 0 0 0 .931.173.627.627 0 0 0 .181-.893Zm-4.754-6.276a114.007 114.007 0 0 0-1.682-2.022.69.69 0 0 0-.944-.091.625.625 0 0 0-.095.904c.561.659 1.115 1.325 1.663 1.999a.69.69 0 0 0 .941.112.626.626 0 0 0 .117-.902Zm-5.19-5.951c-.604-.645-1.213-1.28-1.826-1.905a.692.692 0 0 0-.949-.027.624.624 0 0 0-.028.908c.606.618 1.208 1.245 1.804 1.882a.691.691 0 0 0 .947.049.624.624 0 0 0 .052-.907Zm-35.429-1.92a14.185 14.185 0 0 0 2.718-.7.635.635 0 0 0 .385-.831.68.68 0 0 0-.867-.369c-.78.288-1.6.498-2.453.632a.648.648 0 0 0-.554.738c.06.35.405.588.771.53Zm-8.299-.84a9.856 9.856 0 0 0 2.744.806c.365.055.709-.184.766-.535a.648.648 0 0 0-.559-.735l-.108-.016a8.429 8.429 0 0 1-2.259-.678.685.685 0 0 0-.896.299.632.632 0 0 0 .312.859Zm38.103-2.822a94.376 94.376 0 0 0-1.975-1.766.691.691 0 0 0-.947.043.624.624 0 0 0 .046.908 94.689 94.689 0 0 1 1.947 1.743.693.693 0 0 0 .949-.019.625.625 0 0 0-.02-.909Zm-22.426-.047a13.67 13.67 0 0 0 1.707-2.141.627.627 0 0 0-.217-.885.688.688 0 0 0-.923.207 12.407 12.407 0 0 1-1.544 1.939.624.624 0 0 0 .029.909c.27.242.695.23.948-.029Zm-20.964-3.337c.27.875.651 1.717 1.136 2.498a.687.687 0 0 0 .919.223.629.629 0 0 0 .233-.882 9.442 9.442 0 0 1-1.001-2.204.676.676 0 0 0-.833-.434.639.639 0 0 0-.454.799Zm37.31-1.751a81.44 81.44 0 0 0-2.135-1.593.69.69 0 0 0-.939.128.627.627 0 0 0 .133.9 79.304 79.304 0 0 1 2.1 1.566.69.69 0 0 0 .943-.098.625.625 0 0 0-.102-.903Zm-12.499-1.955c.224-.813.41-1.674.556-2.584a.648.648 0 0 0-.561-.733.669.669 0 0 0-.765.538c-.138.863-.315 1.68-.527 2.451a.64.64 0 0 0 .477.785.674.674 0 0 0 .82-.457Zm-24.089-4.277a9.388 9.388 0 0 0-.973 2.583.645.645 0 0 0 .519.761.671.671 0 0 0 .794-.497 8.16 8.16 0 0 1 .842-2.239.63.63 0 0 0-.274-.87.686.686 0 0 0-.908.262Zm30.009 1.675a61.92 61.92 0 0 0-2.316-1.352.688.688 0 0 0-.917.234.628.628 0 0 0 .245.878c.754.419 1.509.86 2.265 1.323a.688.688 0 0 0 .926-.195.627.627 0 0 0-.203-.888Zm-7.15-3.731a42.34 42.34 0 0 0-2.523-.988.68.68 0 0 0-.862.38.637.637 0 0 0 .396.826c.809.287 1.624.606 2.443.956a.684.684 0 0 0 .886-.326.633.633 0 0 0-.34-.848Zm-16.039-2.561a11.266 11.266 0 0 0-2.708.849.632.632 0 0 0-.311.859.685.685 0 0 0 .896.298 9.892 9.892 0 0 1 2.378-.744.645.645 0 0 0 .531-.753.67.67 0 0 0-.786-.509Zm18.205 1.086a42.91 42.91 0 0 0-.089-2.607c-.023-.354-.342-.624-.711-.602-.369.022-.651.327-.628.681.056.874.085 1.718.087 2.532.001.355.303.642.673.641.37-.001.67-.29.668-.645Zm-9.95-.945c-.921-.17-1.83-.293-2.726-.366a.664.664 0 0 0-.725.586.652.652 0 0 0 .611.695c.85.07 1.713.186 2.586.347a.67.67 0 0 0 .785-.51.644.644 0 0 0-.531-.752Zm9.306-6.823a72.651 72.651 0 0 0-.407-2.563c-.061-.35-.408-.586-.773-.526a.646.646 0 0 0-.549.741c.146.827.279 1.667.4 2.521.05.351.388.598.755.55a.647.647 0 0 0 .574-.723Zm-1.504-7.645a58.128 58.128 0 0 0-.706-2.508.675.675 0 0 0-.832-.436.64.64 0 0 0-.455.797c.246.804.476 1.622.691 2.456a.674.674 0 0 0 .813.47.642.642 0 0 0 .489-.779Zm-2.476-7.426a46.831 46.831 0 0 0-1.08-2.392.683.683 0 0 0-.891-.311.633.633 0 0 0-.325.854c.369.758.719 1.534 1.051 2.327.138.33.529.49.873.358a.635.635 0 0 0 .372-.836Zm-3.661-6.984a40.982 40.982 0 0 0-1.508-2.175.69.69 0 0 0-.936-.15.626.626 0 0 0-.157.896c.508.683.995 1.386 1.461 2.107a.689.689 0 0 0 .924.207.628.628 0 0 0 .216-.885Zm-4.96-6.218a39.224 39.224 0 0 0-1.933-1.846.691.691 0 0 0-.947.033.623.623 0 0 0 .034.908c.644.575 1.267 1.17 1.867 1.784a.691.691 0 0 0 .948.029.624.624 0 0 0 .031-.908Zm-6.161-5.141c-.735-.5-1.492-.981-2.271-1.443a.687.687 0 0 0-.923.208.627.627 0 0 0 .217.885c.755.448 1.489.914 2.201 1.398a.69.69 0 0 0 .935-.152.626.626 0 0 0-.159-.896Zm-7.057-3.921c-.81-.364-1.64-.712-2.49-1.043a.68.68 0 0 0-.874.353.633.633 0 0 0 .368.837c.828.323 1.637.662 2.426 1.017a.684.684 0 0 0 .892-.309.632.632 0 0 0-.322-.855Zm-7.607-2.772a67.895 67.895 0 0 0-2.61-.7.674.674 0 0 0-.817.462.641.641 0 0 0 .482.783c.869.215 1.721.443 2.556.686.355.102.73-.09.837-.43a.64.64 0 0 0-.448-.801Zm-7.897-1.81a88.638 88.638 0 0 0-2.667-.424.667.667 0 0 0-.763.54.647.647 0 0 0 .564.731 86.35 86.35 0 0 1 2.625.418c.364.063.714-.168.78-.517a.645.645 0 0 0-.539-.748Z" fill="#ACACAC"/><path fill-rule="evenodd" clip-rule="evenodd" d="M258.871 99.498c-2.09-6.735 3.767-14.132 10.543-11.422 5.613 2.245.592 12.494-4.079 13.388l-6.464-1.966Z" fill="#C4C4C4"/><path fill-rule="evenodd" clip-rule="evenodd" d="M258.378 102.493c-4.143 5.797-.934 14.558 6.383 13.969 6.061-.488 4.559-11.719.399-13.942l-6.782-.027Z" fill="#C3C3C3"/><path fill-rule="evenodd" clip-rule="evenodd" d="M262.897 97.257c3.808.573 6.585 2.954 6.199 5.314-.387 2.36-3.792 3.81-7.6 3.237-3.807-.573-6.585-2.954-6.198-5.314.386-2.36 3.792-3.81 7.599-3.237Z" fill="#ACACAC"/><path d="M459.183 213.262h-73.097v106.129h73.097V213.262Z" fill="url(#n)"/><path fill-rule="evenodd" clip-rule="evenodd" d="M459.179 223.524c-17.384 5.908-42.075 11.383-42.075 11.383s.159 1.303.451 3.543l-2.378.302s-14.876-2.361-18.869-.942c-5.483 1.95-6.703 11.265 0 12.051 0 0-9.507-.706-15.324 1.395l5.098 29.056c1.549 2.723 3.458 7.269 5.72 8.614 12.896 7.667 30.829-2.745 30.829-2.745l1.737-.51c1.773 8.172 4.134 15.442 6.061 18.272 9.948-.872 20.146-1.178 28.75-2.521v-77.898Z" fill="url(#o)"/><path d="M389.036 213.262H259.18v106.129h129.856V213.262Z" fill="url(#p)"/><path fill-rule="evenodd" clip-rule="evenodd" d="m389.036 225.805-10.684 27.387H259.18V215.17l.744-1.907h129.112v12.542Z" fill="#B58E1D"/><path fill-rule="evenodd" clip-rule="evenodd" d="M389.037 213.262H259.924l-18.967 31.487H370.07l18.967-31.487Z" fill="url(#q)"/><path fill-rule="evenodd" clip-rule="evenodd" d="M416.41 240.237s-17.199-2.743-20.095.047c-4.125 3.973-1.605 9.781 5.098 10.567 0 0-16.6-1.233-19.349 4.407-2.748 5.64.611 25.95 9.745 31.381 12.896 7.667 32.228-3.673 32.228-3.673l11.087-3.255-11.087-40.444-7.627.97Z" fill="#FFC4CD"/><path fill-rule="evenodd" clip-rule="evenodd" d="m419.273 239.872 5.285 1.318 10.56 38.521-11.087 3.255s-19.332 11.341-32.228 3.673c-2.075-1.234-3.852-3.236-5.326-5.658 4.79 1.305 12.37 3.145 17.009 3.145 3.85 0 13.404-.473 14.736-4.415 2.178-6.451 1.627-30.142-1.819-39.474l2.87-.365Z" fill="#FFA3B1"/><path d="M420.699 132.436s.852 18.175 10.71 19.095c19.668 1.835 46.524-20.448 46.524-20.448" stroke="#F1F9FE" stroke-width="30" stroke-miterlimit="1.5" stroke-linecap="round" stroke-linejoin="round"/><path fill-rule="evenodd" clip-rule="evenodd" d="M379.171 51.278s-3.172 12.147 5.885 17.04c-2.009 3.259-.745 12.844 8.92 14.737v-30.28l-14.805-1.497Z" fill="#583707"/><path fill-rule="evenodd" clip-rule="evenodd" d="M391.06 56.088c-1.979 17.235-.376 48.125 14.355 57.537 14.731 9.413 41.508 2.258 48.413-4.321 10.981-10.465 10.981-18.676 10.981-18.676s3.136 3.479 9.376 0c5.852-3.262 8.625-14.935 1.49-18.731-5.883-3.13-13.099-.268-14.619 10.107V52.776s-68.564-9.163-69.996 3.312Z" fill="#FFC4CD"/><path fill-rule="evenodd" clip-rule="evenodd" d="M391.057 56.088c.029-.24.081-.477.16-.706.397-1.155 1.399-1.997 2.458-2.603.171-.098.346-.192.523-.28.251-.125.506-.242.764-.35.31-.132.626-.252.944-.364.459-.162.924-.306 1.392-.437a36.187 36.187 0 0 1 4.082-.862 66.197 66.197 0 0 1 4.81-.565c4.1-.343 8.222-.413 12.335-.38l.398.003.399.005.4.005.053.001c19.321.287 41.278 3.221 41.278 3.221v29.228c1.146-7.822 5.53-11.373 10.139-11.306 1.504.022 3.033.429 4.48 1.2 7.135 3.796 4.363 15.468-1.49 18.73-2.149 1.198-3.93 1.572-5.341 1.546-2.686-.05-4.034-1.546-4.034-1.546s0 7.534-9.652 17.366c.348-4.001.86-9.305.135-10.868-1.814-3.912-7.441-13.698-5.223-21.523 0 0-8.221-5.505-7.737-10.22 0 0-14.353-.309-14.998-7.187 0 0-10.916 6.077-17.256 0 0 0-11.633 7.784-19.529 4.033l.009-.164.003-.056.008-.143.004-.076.008-.132.005-.087.008-.124.006-.095.007-.117.007-.106.007-.107.01-.158.003-.048.005-.07.01-.143.006-.087.009-.126.006-.09.009-.123.007-.09.009-.124.006-.088.01-.127.006-.083.011-.137.006-.071.014-.18.002-.028.018-.208.004-.057.013-.149.007-.075.011-.13.007-.08.011-.126.007-.08.012-.126.007-.079.012-.13.007-.072.014-.15.005-.05.02-.2.004-.041.016-.158.007-.07.013-.128.008-.077.012-.12.009-.08.012-.117.009-.08.013-.119.008-.075.014-.13.008-.062.021-.192Z" fill="#EB9FB1"/><path fill-rule="evenodd" clip-rule="evenodd" d="M397.526 73.974s4.338-7.22 12.374-4.462c.523.18 1.099-.082 1.286-.583.188-.5-.085-1.053-.607-1.233-9.604-3.296-14.796 5.314-14.796 5.314a.944.944 0 0 0 .369 1.317 1.031 1.031 0 0 0 1.374-.353ZM440.372 73.01s-5.191-8.61-14.795-5.314c-.523.18-.795.732-.608 1.233.187.501.764.762 1.287.583 8.035-2.759 12.374 4.462 12.374 4.462.277.46.893.619 1.374.353a.942.942 0 0 0 .368-1.317Z" fill="#D98810"/><path d="M405.633 84.478c.997 0 1.805-1.372 1.805-3.065 0-1.692-.808-3.064-1.805-3.064-.997 0-1.805 1.372-1.805 3.064 0 1.693.808 3.065 1.805 3.065ZM430.965 84.478c.997 0 1.805-1.372 1.805-3.065 0-1.692-.808-3.064-1.805-3.064-.997 0-1.805 1.372-1.805 3.064 0 1.693.808 3.065 1.805 3.065Z" fill="#001861"/><path fill-rule="evenodd" clip-rule="evenodd" d="M461.056 82.004s-2.72 10.586-5.145 8.73c-2.424-1.856-4.033-14.563-3.213-17.99 0 0-9.266-3.14-7.765-10.854-1.567 2.554-16.257 1.52-15.718-7.497 0 2.177-13.632 8.119-19.219 0 1.643 1.4-16.722 13.201-21.528.714-5.847 4.645-22.417-4.714-9.386-18.277-4.393-5.296-.283-19.867 11.468-19.867-2.082-6.908 13.282-21.05 26.216-9.865 2.349-8.736 20.638-11.699 26.018 4.6 8.115-4.815 21.156-6.585 20.603 8.14 6.355-5.368 19.975-4.497 19.975 8.98 6.707 0 14.139 7.748 7.348 20.714 5.953 5.575 8.325 18.426-2.618 25.23 1.028 4.734.981 22.3-15.018 23.491l-.572-6.942c9.373-4.561 7.304-14.791 5.724-16.964-3.268-4.494-14.839-5.88-17.17 7.657Z" fill="#372100"/><path fill-rule="evenodd" clip-rule="evenodd" d="M376.981 39.315c2.174 3.03 5.51 7.029 9.591 9.812 9.386 6.399 15.733-2.087 21.772 1.024 7.253 3.737 11.611 3.988 19.352 0s11.196 6.678 19.159 6.678c11.999 0 14.443 12.625 21.965 7.14 10.203-7.438 15.612.113 26.848-.902-.405 4.313-2.632 8.621-7.576 11.696 1.029 4.733.981 22.298-15.017 23.49l-.573-6.942c9.374-4.56 7.305-14.791 5.725-16.965-3.269-4.493-14.839-5.879-17.171 7.657 0 0-2.72 10.588-5.145 8.73-2.424-1.855-4.032-14.562-3.213-17.989 0 0-9.266-3.14-7.765-10.854-1.563 2.548-16.192 1.525-15.721-7.437a.606.606 0 0 0 .003-.06l-.003.06c-.24 2.212-13.542 7.927-19.13.063a.282.282 0 0 0-.085-.123l.085.123c.659 1.845-16.926 12.77-21.613.591-5.483 4.356-20.395-3.602-11.488-15.792Z" fill="#150D00"/><path fill-rule="evenodd" clip-rule="evenodd" d="M416.496 83.67c-.156 1.048-1.955 6.574-2.642 10.383-.222 1.233-.326 2.299-.252 3.018.044.436.159.775.31 1.01.526.817 1.531 1.264 2.584 1.444 1.349.23 2.732.049 2.732.049.458-.061.779-.467.716-.906-.063-.44-.486-.747-.945-.686 0 0-1.118.147-2.208-.04-.573-.097-1.166-.26-1.451-.704-.077-.12-.078-.32-.085-.571-.016-.608.085-1.421.251-2.341.69-3.825 2.493-9.376 2.65-10.428.065-.44-.254-.846-.712-.91-.458-.062-.883.244-.948.683Z" fill="#E6899F"/><path fill-rule="evenodd" clip-rule="evenodd" d="M426.43 107.821c.277-2.692 3.01-3.352 5.629-2.5.438.142.914-.083 1.063-.503.149-.42-.086-.876-.524-1.019-2.181-.709-4.383-.548-5.882.462-1.052.709-1.792 1.828-1.954 3.403-.046.441.291.834.752.878.46.044.871-.279.916-.721Z" fill="#FF4C4C"/><path fill-rule="evenodd" clip-rule="evenodd" d="M468.314 83.844c0-1.374.565-2.536 1.592-3.13 1.059-.612 2.557-.594 4.326.269a.772.772 0 0 0 1.014-.318.71.71 0 0 0-.33-.973c-2.364-1.151-4.374-1.034-5.789-.216-1.446.835-2.322 2.433-2.322 4.368 0 .4.338.724.754.724.417 0 .755-.325.755-.724Z" fill="#CC4A69"/><path fill-rule="evenodd" clip-rule="evenodd" d="M504.619 185s-10.663 17.715-30.173 30.023C460.533 223.8 420 231.932 420 231.932s6.598 56.246 13.049 66.068c37.2-3.38 64.196-9.763 86.951-22.212L504.619 185Z" fill="url(#r)"/><defs><linearGradient id="j" x1="284.307" y1="244.074" x2="284.307" y2="350.561" gradientUnits="userSpaceOnUse"><stop stop-color="#00552C"/><stop offset="1" stop-color="#0E5E37"/></linearGradient><linearGradient id="b" x1="572.131" y1="176.891" x2="572.131" y2="255.571" gradientUnits="userSpaceOnUse"><stop stop-color="#00C165"/><stop offset="1" stop-color="#0E553C"/></linearGradient><linearGradient id="d" x1="591.371" y1="230.879" x2="591.371" y2="348.996" gradientUnits="userSpaceOnUse"><stop stop-color="#00C165"/><stop offset="1" stop-color="#0D653B"/></linearGradient><linearGradient id="e" x1="580.224" y1="244.074" x2="580.224" y2="350.561" gradientUnits="userSpaceOnUse"><stop stop-color="#00552C"/><stop offset="1" stop-color="#0E5E37"/></linearGradient><linearGradient id="f" x1="600.666" y1="307.11" x2="600.666" y2="380.07" gradientUnits="userSpaceOnUse"><stop stop-color="#00C165"/><stop offset="1" stop-color="#0D653B"/></linearGradient><linearGradient id="g" x1="292.4" y1="176.891" x2="292.4" y2="255.571" gradientUnits="userSpaceOnUse"><stop stop-color="#00C165"/><stop offset="1" stop-color="#0E553C"/></linearGradient><linearGradient id="h" x1="292.449" y1="176.892" x2="292.449" y2="255.425" gradientUnits="userSpaceOnUse"><stop stop-color="#0E5E37"/><stop offset="1" stop-color="#00502A"/></linearGradient><linearGradient id="i" x1="273.16" y1="230.879" x2="273.16" y2="348.996" gradientUnits="userSpaceOnUse"><stop stop-color="#00C165"/><stop offset="1" stop-color="#0D653B"/></linearGradient><linearGradient id="c" x1="572.082" y1="176.892" x2="572.082" y2="255.425" gradientUnits="userSpaceOnUse"><stop stop-color="#0E5E37"/><stop offset="1" stop-color="#00502A"/></linearGradient><linearGradient id="k" x1="263.865" y1="307.11" x2="263.865" y2="380.07" gradientUnits="userSpaceOnUse"><stop stop-color="#00C165"/><stop offset="1" stop-color="#0D653B"/></linearGradient><linearGradient id="l" x1="459.183" y1="157.583" x2="459.183" y2="311.732" gradientUnits="userSpaceOnUse"><stop stop-color="#EEE"/><stop offset="1" stop-color="#7A7A7A"/></linearGradient><linearGradient id="m" x1="485.732" y1="212.294" x2="485.732" y2="316.275" gradientUnits="userSpaceOnUse"><stop stop-color="#CDCDCD"/><stop offset="1" stop-color="#8C8C8C"/></linearGradient><linearGradient id="n" x1="411.616" y1="221.261" x2="411.616" y2="310.295" gradientUnits="userSpaceOnUse"><stop stop-color="#B58E1D"/><stop offset="1" stop-color="#9C6920"/></linearGradient><linearGradient id="o" x1="408.294" y1="229.586" x2="408.294" y2="297.051" gradientUnits="userSpaceOnUse"><stop stop-color="#F0A309"/><stop offset="1" stop-color="#985E0D"/></linearGradient><linearGradient id="p" x1="324.109" y1="229.007" x2="324.109" y2="308.803" gradientUnits="userSpaceOnUse"><stop stop-color="#EBBF54"/><stop offset="1" stop-color="#BB7D25"/></linearGradient><linearGradient id="q" x1="310.348" y1="213.262" x2="307.644" y2="241.63" gradientUnits="userSpaceOnUse"><stop stop-color="#EFBE48"/><stop offset="1" stop-color="#E0A109"/></linearGradient><linearGradient id="r" x1="460.765" y1="150.43" x2="460.765" y2="309.849" gradientUnits="userSpaceOnUse"><stop stop-color="#EEE"/><stop offset="1" stop-color="#747474"/></linearGradient></defs></svg>