<svg width="100" height="100" viewBox="0 0 100 100" fill="none" xmlns="http://www.w3.org/2000/svg">
<g filter="url(#filter0_i_28_34)">
<rect width="100" height="100" rx="5" fill="#0D2219"/>
</g>
<g filter="url(#filter1_d_28_34)">
<path d="M33.52 39.52L37.06 38.98C37.62 38.98 37.92 39.12 37.96 39.4C37.96 40.16 37.24 40.84 35.8 41.44C34.4 42.04 32.6 42.34 30.4 42.34C28.2 42.34 26.38 41.82 24.94 40.78C23.5 39.7 22.78 38.22 22.78 36.34C22.78 34.7 24.28 32.56 27.28 29.92C28.84 28.56 30.68 27.28 32.8 26.08C34.96 24.88 37.68 23.88 40.96 23.08C44.28 22.24 47.62 21.82 50.98 21.82C54.34 21.82 57.12 22.22 59.32 23.02C61.56 23.78 63.22 24.74 64.3 25.9C66.34 28.1 67.36 30.06 67.36 31.78C67.36 32.74 67.1 33.68 66.58 34.6C66.1 35.48 65.4 36.2 64.48 36.76C57.24 40.92 51.84 43.56 48.28 44.68C47.64 44.96 47.32 45.2 47.32 45.4C47.32 45.48 47.6 45.56 48.16 45.64C51.28 45.64 54.24 46.2 57.04 47.32C58.6 47.96 59.86 48.92 60.82 50.2C61.78 51.48 62.26 53.14 62.26 55.18C62.26 57.18 61.44 59.12 59.8 61C58.2 62.88 56.18 64.42 53.74 65.62C51.34 66.82 48.68 67.84 45.76 68.68C40.36 70.16 35.42 70.9 30.94 70.9C28.54 70.9 26.24 70.6 24.04 70C19.76 68.84 17.62 67.12 17.62 64.84C17.62 63.44 18.2 62.08 19.36 60.76C20.56 59.4 21.68 58.68 22.72 58.6C22.76 58.6 23.12 58.68 23.8 58.84C25.68 59.28 28.06 59.5 30.94 59.5C33.82 59.5 37.2 58.98 41.08 57.94C45 56.9 48.32 55.66 51.04 54.22C53.76 52.74 55.12 51.4 55.12 50.2C55.12 48.76 52.26 48.04 46.54 48.04C44.38 48.04 42.7 48.16 41.5 48.4C41.22 48.44 39.86 49.86 37.42 52.66C35.02 55.46 33.5 57.26 32.86 58.06C32.18 58.66 31.54 58.96 30.94 58.96C30.38 58.96 29.98 58.84 29.74 58.6C29.5 58.36 29.38 58.14 29.38 57.94C29.38 57.74 29.46 57.5 29.62 57.22C29.78 56.94 30.32 56.18 31.24 54.94C33.76 51.54 35.02 49.74 35.02 49.54C35.02 49.3 34.84 48.92 34.48 48.4C34.16 47.84 34 47.36 34 46.96C34 46.56 34.3 46.24 34.9 46C35.54 45.76 36.3 45.54 37.18 45.34C38.1 45.1 38.68 44.92 38.92 44.8C39.2 44.64 40.26 43.42 42.1 41.14C43.98 38.86 45.06 37.58 45.34 37.3C45.66 37.02 46.1 36.88 46.66 36.88C47.62 36.88 48.1 37.26 48.1 38.02C48.1 38.46 47.7 39.22 46.9 40.3C46.14 41.38 45.76 42 45.76 42.16C45.76 42.28 45.78 42.36 45.82 42.4C46.86 42.4 49.32 41.4 53.2 39.4C57.08 37.4 59.52 36 60.52 35.2C60.92 35.04 61.12 34.78 61.12 34.42C61.12 33.62 59.9 33.22 57.46 33.22C53.74 33.22 49.88 33.66 45.88 34.54C41.92 35.42 38.78 36.34 36.46 37.3C34.18 38.22 33.04 38.9 33.04 39.34C33.04 39.46 33.2 39.52 33.52 39.52ZM79.7069 67.72C78.7069 67.48 76.6469 64.9 73.5269 59.98C72.8869 60.54 71.9869 61.36 70.8269 62.44C69.6669 63.52 68.7669 64.34 68.1269 64.9C67.4869 65.46 66.7469 66.08 65.9069 66.76C64.3469 67.96 63.1269 68.56 62.2469 68.56C61.3669 68.56 60.5869 68.16 59.9069 67.36C59.2269 66.56 58.8869 65.84 58.8869 65.2C58.8869 61.84 62.4069 57.8 69.4469 53.08C67.7669 50 66.9269 47.94 66.9269 46.9C66.9269 46.7 67.0269 46.42 67.2269 46.06C67.4669 45.66 67.6469 45.46 67.7669 45.46C67.9269 45.46 68.0269 45.54 68.0669 45.7C68.5069 46.86 69.6469 48.9 71.4869 51.82C73.8469 50.34 76.0869 49.08 78.2069 48.04C80.3669 46.96 81.5869 46.42 81.8669 46.42C82.1469 46.42 82.3469 46.44 82.4669 46.48C82.6269 46.48 82.8869 46.52 83.2469 46.6C83.6469 46.68 83.9869 46.8 84.2669 46.96C84.5469 47.12 84.8069 47.36 85.0469 47.68C85.2869 47.96 85.4069 48.3 85.4069 48.7C85.4069 49.1 85.2469 49.54 84.9269 50.02C84.6069 50.5 84.0869 51.08 83.3669 51.76C82.6469 52.4 81.9469 53 81.2669 53.56C78.8669 55.52 76.9669 57.06 75.5669 58.18C78.8869 63.38 80.5469 66.3 80.5469 66.94C80.5469 67.38 80.2669 67.64 79.7069 67.72Z" fill="url(#paint0_linear_28_34)"/>
</g>
<defs>
<filter id="filter0_i_28_34" x="0" y="0" width="100" height="100" filterUnits="userSpaceOnUse" color-interpolation-filters="sRGB">
<feFlood flood-opacity="0" result="BackgroundImageFix"/>
<feBlend mode="normal" in="SourceGraphic" in2="BackgroundImageFix" result="shape"/>
<feColorMatrix in="SourceAlpha" type="matrix" values="0 0 0 0 0 0 0 0 0 0 0 0 0 0 0 0 0 0 127 0" result="hardAlpha"/>
<feOffset/>
<feGaussianBlur stdDeviation="10"/>
<feComposite in2="hardAlpha" operator="arithmetic" k2="-1" k3="1"/>
<feColorMatrix type="matrix" values="0 0 0 0 0.12 0 0 0 0 0.9 0 0 0 0 0.432 0 0 0 0.72 0"/>
<feBlend mode="normal" in2="shape" result="effect1_innerShadow_28_34"/>
</filter>
<filter id="filter1_d_28_34" x="13.6201" y="21.82" width="75.7866" height="57.08" filterUnits="userSpaceOnUse" color-interpolation-filters="sRGB">
<feFlood flood-opacity="0" result="BackgroundImageFix"/>
<feColorMatrix in="SourceAlpha" type="matrix" values="0 0 0 0 0 0 0 0 0 0 0 0 0 0 0 0 0 0 127 0" result="hardAlpha"/>
<feOffset dy="4"/>
<feGaussianBlur stdDeviation="2"/>
<feComposite in2="hardAlpha" operator="out"/>
<feColorMatrix type="matrix" values="0 0 0 0 0 0 0 0 0 0 0 0 0 0 0 0 0 0 0.25 0"/>
<feBlend mode="normal" in2="BackgroundImageFix" result="effect1_dropShadow_28_34"/>
<feBlend mode="normal" in="SourceGraphic" in2="effect1_dropShadow_28_34" result="shape"/>
</filter>
<linearGradient id="paint0_linear_28_34" x1="50" y1="10" x2="50" y2="90" gradientUnits="userSpaceOnUse">
<stop stop-color="#00FF8B"/>
<stop offset="1" stop-color="#00B1E9"/>
</linearGradient>
</defs>
</svg>
