<svg width="24" height="24" viewBox="0 0 24 24" fill="none" xmlns="http://www.w3.org/2000/svg">
<path fill-rule="evenodd" clip-rule="evenodd" d="M11.9987 6.75039C11.9985 5.93039 12.1904 5.12174 12.5589 4.38925C12.9275 3.65675 13.4625 3.02077 14.1211 2.53228C14.7798 2.04379 15.5436 1.71636 16.3516 1.57624C17.1595 1.43612 17.9891 1.4872 18.7737 1.72539C18.8977 1.76296 19.0099 1.83202 19.0993 1.92584C19.1886 2.01966 19.2522 2.13504 19.2837 2.26073C19.3152 2.38642 19.3137 2.51813 19.2791 2.64303C19.2446 2.76792 19.1783 2.88174 19.0867 2.97339L15.7667 6.29239C15.8297 6.76739 16.0427 7.22639 16.4077 7.59139C16.7727 7.95639 17.2317 8.16939 17.7077 8.23139L21.0257 4.91239C21.1173 4.82078 21.2312 4.75448 21.3561 4.71996C21.481 4.68543 21.6127 4.68385 21.7384 4.71537C21.864 4.74689 21.9794 4.81044 22.0732 4.89983C22.1671 4.98921 22.2361 5.10138 22.2737 5.22539C22.5229 6.04625 22.5672 6.91567 22.4026 7.75759C22.2381 8.59951 21.8697 9.38829 21.3298 10.0549C20.7899 10.7215 20.0948 11.2457 19.3054 11.5815C18.5161 11.9174 17.6564 12.0547 16.8017 11.9814C15.7837 11.8954 14.9317 12.0814 14.4927 12.6154L7.3427 21.3004C7.04993 21.6542 6.68653 21.9429 6.27574 22.1481C5.86495 22.3533 5.41584 22.4705 4.95716 22.4921C4.49847 22.5137 4.04033 22.4393 3.61207 22.2736C3.1838 22.108 2.79485 21.8547 2.47012 21.53C2.14539 21.2054 1.89203 20.8165 1.72627 20.3882C1.56052 19.96 1.48601 19.5019 1.50753 19.0432C1.52905 18.5845 1.64611 18.1354 1.85123 17.7245C2.05635 17.3137 2.345 16.9502 2.6987 16.6574L11.3827 9.50639C11.9157 9.06639 12.1027 8.21539 12.0167 7.19739C12.0045 7.04871 11.9985 6.89958 11.9987 6.75039ZM4.1157 19.1254C4.1157 18.9265 4.19471 18.7357 4.33537 18.5951C4.47602 18.4544 4.66678 18.3754 4.8657 18.3754H4.8737C5.07261 18.3754 5.26337 18.4544 5.40403 18.5951C5.54468 18.7357 5.6237 18.9265 5.6237 19.1254V19.1334C5.6237 19.3323 5.54468 19.5231 5.40403 19.6637C5.26337 19.8044 5.07261 19.8834 4.8737 19.8834H4.8657C4.66678 19.8834 4.47602 19.8044 4.33537 19.6637C4.19471 19.5231 4.1157 19.3323 4.1157 19.1334V19.1254Z" fill="white"/>
<path d="M10.0757 8.63975L7.87473 6.43975V4.87375C7.87472 4.74427 7.84119 4.61699 7.7774 4.50432C7.71362 4.39164 7.62174 4.29739 7.51073 4.23075L3.76073 1.98075C3.6173 1.89477 3.44925 1.85919 3.28329 1.87967C3.11732 1.90014 2.96296 1.97549 2.84473 2.09375L2.09473 2.84375C1.97647 2.96198 1.90112 3.11635 1.88064 3.28231C1.86017 3.44828 1.89575 3.61632 1.98173 3.75975L4.23173 7.50975C4.29837 7.62077 4.39261 7.71264 4.50529 7.77643C4.61797 7.84021 4.74525 7.87374 4.87473 7.87375H6.43873L8.50073 9.93575L10.0757 8.63875V8.63975Z" fill="white"/>
<path fill-rule="evenodd" clip-rule="evenodd" d="M12.5547 17.3286L16.7377 21.5106C17.0511 21.824 17.4231 22.0726 17.8326 22.2422C18.2421 22.4118 18.681 22.4991 19.1242 22.4991C19.5674 22.4991 20.0063 22.4118 20.4158 22.2422C20.8252 22.0726 21.1973 21.824 21.5107 21.5106C21.8241 21.1972 22.0727 20.8252 22.2423 20.4157C22.4119 20.0062 22.4992 19.5673 22.4992 19.1241C22.4992 18.6809 22.4119 18.242 22.2423 17.8326C22.0727 17.4231 21.8241 17.051 21.5107 16.7376L18.2047 13.4326C17.6979 13.5045 17.1847 13.5189 16.6747 13.4756C16.2807 13.4416 15.9927 13.4696 15.8077 13.5176C15.7491 13.53 15.6928 13.5513 15.6407 13.5806L12.5547 17.3286ZM15.9687 15.9686C16.1093 15.8282 16.2999 15.7493 16.4987 15.7493C16.6974 15.7493 16.8881 15.8282 17.0287 15.9686L18.9037 17.8446C18.9774 17.9133 19.0365 17.9961 19.0775 18.0881C19.1185 18.1801 19.1405 18.2794 19.1423 18.3801C19.1441 18.4808 19.1255 18.5808 19.0878 18.6742C19.0501 18.7676 18.9939 18.8524 18.9227 18.9237C18.8515 18.9949 18.7667 19.051 18.6733 19.0887C18.5799 19.1265 18.4799 19.145 18.3792 19.1432C18.2785 19.1414 18.1791 19.1194 18.0871 19.0784C17.9951 19.0374 17.9123 18.9783 17.8437 18.9046L15.9687 17.0296C15.8282 16.889 15.7493 16.6984 15.7493 16.4996C15.7493 16.3009 15.8282 16.1102 15.9687 15.9696V15.9686Z" fill="white"/>
</svg>
