<svg width="24" height="24" viewBox="0 0 24 24" fill="none" xmlns="http://www.w3.org/2000/svg">
<path d="M11.1602 2.14758C11.7031 1.95081 12.2969 1.95081 12.8438 2.14758L20.3438 4.8473C21.3359 5.20543 22 6.15388 22 7.22039V16.7796C22 17.8422 21.3359 18.7946 20.3398 19.1527L12.8398 21.8524C12.2969 22.0492 11.7031 22.0492 11.1562 21.8524L3.65625 19.1527C2.66406 18.7906 2 17.8422 2 16.7757V7.22039C2 6.15781 2.66406 5.20543 3.66016 4.8473L11.1602 2.14758ZM12 4.52066L5.21484 6.96065L12 9.40063L18.7852 6.96065L12 4.52066ZM13.25 19.0268L19.5 16.7796V9.38095L13.25 11.6281V19.0268Z" fill="white"/>
</svg>
