<svg width="57" height="57" viewBox="0 0 57 57" fill="none" xmlns="http://www.w3.org/2000/svg">
<path fill-rule="evenodd" clip-rule="evenodd" d="M0.5625 28.9888C0.5625 32.7018 2.0375 36.2628 4.66301 38.8883C7.28851 41.5138 10.8495 42.9888 14.5625 42.9888H25.0625V53.4888C25.0625 54.417 25.4312 55.3073 26.0876 55.9636C26.744 56.62 27.6342 56.9888 28.5625 56.9888C29.4908 56.9888 30.381 56.62 31.0374 55.9636C31.6938 55.3073 32.0625 54.417 32.0625 53.4888V42.9888H42.5625C46.2755 42.9888 49.8365 41.5138 52.462 38.8883C55.0875 36.2628 56.5625 32.7018 56.5625 28.9888C56.5625 25.2757 55.0875 21.7148 52.462 19.0893C49.8365 16.4638 46.2755 14.9888 42.5625 14.9888C42.5625 11.2757 41.0875 7.71478 38.462 5.08927C35.8365 2.46377 32.2755 0.98877 28.5625 0.98877C24.8495 0.98877 21.2885 2.46377 18.663 5.08927C16.0375 7.71478 14.5625 11.2757 14.5625 14.9888C10.8495 14.9888 7.28851 16.4638 4.66301 19.0893C2.0375 21.7148 0.5625 25.2757 0.5625 28.9888ZM32.0625 42.9888H25.0625V26.9378L20.537 31.4633C19.8769 32.1008 18.9928 32.4536 18.0751 32.4456C17.1574 32.4377 16.2796 32.0696 15.6306 31.4206C14.9817 30.7717 14.6136 29.8939 14.6056 28.9762C14.5977 28.0585 14.9504 27.1744 15.588 26.5143L26.088 16.0143C26.7443 15.3581 27.6344 14.9895 28.5625 14.9895C29.4906 14.9895 30.3807 15.3581 31.037 16.0143L41.537 26.5143C42.1746 27.1744 42.5273 28.0585 42.5194 28.9762C42.5114 29.8939 42.1433 30.7717 41.4944 31.4206C40.8454 32.0696 39.9676 32.4377 39.0499 32.4456C38.1322 32.4536 37.2481 32.1008 36.588 31.4633L32.0625 26.9378V42.9888Z" fill="#9298A2"/>
</svg>