<svg width="24" height="24" viewBox="0 0 24 24" fill="none" xmlns="http://www.w3.org/2000/svg">
<g clip-path="url(#clip0_63_54)">
<path d="M7.94141 3.56681C8.32813 3.93185 8.35937 4.55119 8.01172 4.95724L5.19922 8.23849C5.02734 8.43947 4.78516 8.55841 4.52734 8.56251C4.26953 8.56662 4.02344 8.46408 3.83984 8.2754L2.27344 6.63478C1.91016 6.24923 1.91016 5.6258 2.27344 5.24025C2.63672 4.8547 3.23438 4.8547 3.59766 5.24025L4.46094 6.14669L6.61328 3.63654C6.96094 3.23048 7.55078 3.19767 7.9375 3.56271L7.94141 3.56681ZM7.94141 10.1293C8.32813 10.4943 8.35937 11.1137 8.01172 11.5197L5.19922 14.801C5.02734 15.002 4.78516 15.1209 4.52734 15.125C4.26953 15.1291 4.02344 15.0266 3.83984 14.8379L2.27344 13.1973C1.90625 12.8117 1.90625 12.1883 2.27344 11.8068C2.64062 11.4254 3.23438 11.4213 3.59766 11.8068L4.46094 12.7133L6.61328 10.2031C6.96094 9.79708 7.55078 9.76427 7.9375 10.1293H7.94141ZM10.75 5.93751C10.75 5.21154 11.3086 4.62501 12 4.62501H20.75C21.4414 4.62501 22 5.21154 22 5.93751C22 6.66349 21.4414 7.25001 20.75 7.25001H12C11.3086 7.25001 10.75 6.66349 10.75 5.93751ZM10.75 12.5C10.75 11.774 11.3086 11.1875 12 11.1875H20.75C21.4414 11.1875 22 11.774 22 12.5C22 13.226 21.4414 13.8125 20.75 13.8125H12C11.3086 13.8125 10.75 13.226 10.75 12.5ZM8.25 19.0625C8.25 18.3365 8.80859 17.75 9.5 17.75H20.75C21.4414 17.75 22 18.3365 22 19.0625C22 19.7885 21.4414 20.375 20.75 20.375H9.5C8.80859 20.375 8.25 19.7885 8.25 19.0625ZM3.875 17.0938C4.37228 17.0938 4.84919 17.3012 5.20083 17.6704C5.55246 18.0396 5.75 18.5404 5.75 19.0625C5.75 19.5847 5.55246 20.0854 5.20083 20.4546C4.84919 20.8238 4.37228 21.0313 3.875 21.0313C3.37772 21.0313 2.90081 20.8238 2.54917 20.4546C2.19754 20.0854 2 19.5847 2 19.0625C2 18.5404 2.19754 18.0396 2.54917 17.6704C2.90081 17.3012 3.37772 17.0938 3.875 17.0938Z" fill="white"/>
</g>
<defs>
<clipPath id="clip0_63_54">
<rect width="20" height="21" fill="white" transform="translate(2 2)"/>
</clipPath>
</defs>
</svg>
