<svg width="24" height="24" viewBox="0 0 24 24" fill="none" xmlns="http://www.w3.org/2000/svg">
<path d="M4.5 3C3.12109 3 2 4.17715 2 5.625V18.75C2 20.1979 3.12109 21.375 4.5 21.375H19.5C20.8789 21.375 22 20.1979 22 18.75V9.5625C22 8.11465 20.8789 6.9375 19.5 6.9375H5.125C4.78125 6.9375 4.5 6.64219 4.5 6.28125C4.5 5.92031 4.78125 5.625 5.125 5.625H19.5C20.1914 5.625 20.75 5.03848 20.75 4.3125C20.75 3.58652 20.1914 3 19.5 3H4.5ZM18.25 12.8438C18.5815 12.8438 18.8995 12.982 19.1339 13.2282C19.3683 13.4743 19.5 13.8082 19.5 14.1562C19.5 14.5043 19.3683 14.8382 19.1339 15.0843C18.8995 15.3305 18.5815 15.4688 18.25 15.4688C17.9185 15.4688 17.6005 15.3305 17.3661 15.0843C17.1317 14.8382 17 14.5043 17 14.1562C17 13.8082 17.1317 13.4743 17.3661 13.2282C17.6005 12.982 17.9185 12.8438 18.25 12.8438Z" fill="white"/>
</svg>
